<?xml version="1.0" encoding="UTF-8"?><svg id="uuid-e8964e95-38e6-4ca7-b294-6e2193cecd24" xmlns="http://www.w3.org/2000/svg" xmlns:xlink="http://www.w3.org/1999/xlink" viewBox="0 0 300.07 214.83"><defs><style>.uuid-d36e812e-e5b5-4a24-8b80-02a1e6827415{clip-path:url(#uuid-72c3348e-f322-4396-bf8b-972d41cc15dc);}.uuid-260d2143-640d-4157-bebe-506b7f265db1,.uuid-1e5b5492-36f9-4e75-bcb3-36855ee0430b{fill:#fff;}.uuid-1e5b5492-36f9-4e75-bcb3-36855ee0430b,.uuid-1da91771-1f33-415a-8952-c96ae4f3e66f,.uuid-4499c37f-ca97-40c2-83d6-e8619315dd3a,.uuid-4de40ef3-b4ee-4490-802b-05ce4de492d0{fill-rule:evenodd;}.uuid-1da91771-1f33-415a-8952-c96ae4f3e66f{fill:#c4c4c0;}.uuid-3e3fdffc-e1d1-457e-964e-31bd48dd0c80{clip-path:url(#uuid-8bae6b4a-905b-471f-883a-badaab90f72a);}.uuid-fd868906-8910-43ea-b670-0e21bb1dc152{clip-path:url(#uuid-20cac0ad-6fe1-43c4-9746-7a3ec35526f1);}.uuid-80bd710e-3174-47eb-8695-df985f94b3f9{fill:#e8c61f;}.uuid-e29973a2-903c-4431-bdfe-359521b334bb,.uuid-c674f93a-b6c7-4d64-b2f1-856e9f83eb4a{fill:none;}.uuid-0c9c2d99-2f8e-4bef-be1f-d5308d322e0c{stroke-width:7px;}.uuid-0c9c2d99-2f8e-4bef-be1f-d5308d322e0c,.uuid-9f18b852-4410-4c43-8868-61751401ae0f{stroke-miterlimit:10;}.uuid-0c9c2d99-2f8e-4bef-be1f-d5308d322e0c,.uuid-9f18b852-4410-4c43-8868-61751401ae0f,.uuid-c674f93a-b6c7-4d64-b2f1-856e9f83eb4a{stroke:#000;}.uuid-4499c37f-ca97-40c2-83d6-e8619315dd3a{fill:#4c893e;}.uuid-9f18b852-4410-4c43-8868-61751401ae0f{stroke-width:6px;}.uuid-c674f93a-b6c7-4d64-b2f1-856e9f83eb4a{stroke-linejoin:round;stroke-width:3.66px;}.uuid-62f2a5ba-d9ea-4661-ab7f-904e8d733465{clip-path:url(#uuid-339ee3f7-3aca-4b66-beb1-f95a8df2a08e);}</style><clipPath id="uuid-339ee3f7-3aca-4b66-beb1-f95a8df2a08e"><ellipse id="uuid-866533ba-5aa1-47fc-96c0-ab0e977a51ef" class="uuid-e29973a2-903c-4431-bdfe-359521b334bb" cx="144.85" cy="36.97" rx="158.08" ry="67.42" transform="translate(-2.9 14.23) rotate(-5.57)"/></clipPath><clipPath id="uuid-8bae6b4a-905b-471f-883a-badaab90f72a"><path id="uuid-52042c4e-43c2-4320-a744-d2da96f5e798" class="uuid-e29973a2-903c-4431-bdfe-359521b334bb" d="m152.62,158.87c-2.51,0-4.96-.27-7.47-.27.7-7.05,2.7-14.1,4.33-21.15.97-3.96,1.84-7.92,2.81-11.89,1.95-7.99,4-15.98,5.76-23.97.41-1.68.82-3.36.95-5.04.16-1.41-.32-1.75-2.27-1.75h-25.68c-.65,0-1.44.2-2.04.34l-1.23,5.04c-1.64,6.72-3.02,13.5-4.66,20.21-1.85,7.59-3.99,15.18-5.84,22.76l-7.63,31.23c-.31,1.28-.55,1.88,1.49,1.88,2.7,0,5.54-.2,8.33-.2,18.15,0,36.3.34,54.44.34h2.51c.26-.67.62-1.41.79-2.08,1.13-4.63,2.22-9.47,2.98-14.1.2-1.21.13-1.68-1.73-1.68-4.75,0-9.51.07-14.35.07-3.82,0-7.7.27-11.51.27h0Z"/></clipPath><clipPath id="uuid-20cac0ad-6fe1-43c4-9746-7a3ec35526f1"><path id="uuid-af7cef6b-bff9-47b7-ab66-a1068ee385ca" class="uuid-e29973a2-903c-4431-bdfe-359521b334bb" d="m202.41,95.21c2.3,5.04,4.1,10.27,7.01,15.11.94,1.48,1.48,3.09,2.22,4.63,2.67,5.44,5.64,10.81,8,16.39.38.74.44,1.61.23,2.48-.05.2-.19.4-.24.6-2.01,4.43-11.02,12.36-15.14,16.65-3,3.16-23.8,25.05-23.8,25.05l-.13.54h30.05c.33-.2.66-.4.91-.67,6.83-6.25,12.3-13.03,18.89-19.41,1.12.74,1.97,1.48,2.04,2.69,0,.4-.01.81.19,1.14,1.71,3.29,3.47,6.38,4.77,9.8.84,2.28,1.99,4.43,2.93,6.65h32.2c-1.53-4.77-4.03-9.4-6.16-14.04-1.64-3.56-3.08-7.18-4.73-10.74-2.61-5.71-5.53-11.28-8.04-16.99-.24-.54-.47-1.14-.3-1.81.15-.6.63-1.07,1.14-1.61,4.46-4.16,7.83-8.8,11.96-13.16,1.62-1.68,3.41-3.29,4.94-4.97,4.33-4.77,8.67-9.6,12.76-14.5,1.04-1.21,1.63-2.48,2.5-3.76-7.52-.47-15.35-.4-22.98-.4-1.86,0-3.92.07-5.84.67-2.85,2.89-5.78,5.78-8.37,8.73-1.81,2.08-4.72,3.69-5.93,5.98l-.94.4c-2.13-4.23-4.56-8.39-5.97-12.89-.58-1.81-1.8-2.55-4.59-2.55h-29.59Zm50.32,31.7c.17.07.25.13.4.27-.22.13-.44.27-.75.4l-.23-.2.71-.6-.13.13h0Zm12.24,39.02l-.27-.4c.22-.13.34-.27.56-.4.23.2.38.34.52.54l-.81.27h0Zm-27.97-29.48c.12.27.24.54.25.87l-.5.13-.03-1.01.61-.2-.33.2h0Z"/></clipPath><clipPath id="uuid-72c3348e-f322-4396-bf8b-972d41cc15dc"><path id="uuid-4c0f897b-c950-46e3-becb-74f9664a3020" class="uuid-e29973a2-903c-4431-bdfe-359521b334bb" d="m64.79,142.09c2.12,4.63,3.13,9.67,4.55,14.51,1.13,3.76,2.16,7.52,3.2,11.28.62,2.42,1.04,4.9,1.67,7.25.3,1.07,1.02,1.55,2.6,1.55h26.24c.56,0,1.17-.2,1.76-.34.05-1.75-.35-3.16-.98-4.77-.63-1.61-.59-3.69-1.01-5.37-.72-2.75-1.66-5.37-2.29-8.13-.59-2.55-.97-5.17-1.56-7.72-.35-1.61-1-3.16-1.35-4.77-1.02-4.57-1.66-9.2-2.69-13.77-.38-1.88-3.49-12.36-3.28-13.23.15-.6.65-1.14,1.23-1.61,7.21-5.91,14.84-11.62,22.06-17.53,1.63-1.34,1.62-1.68,3.7-2.96.33-.2.51-.94.57-1.21-3.3-.6-22.09-.6-26.84-.6-2.05,0-3.34.34-4.92,1.48-3.85,2.82-7.63,5.71-11.41,8.6-4.12,3.16-8.05,7.05-12.88,9.67-.22.13-1.17.2-1.46.27,1.1-6.78,3.11-13.5,4.49-20.28h-28.29l-19.95,81.66c1.1.07,2.11.13,3.22.13h22.05c1.95,0,3.12.2,3.53-1.48l2.44-10.01c1.05-4.3,2.01-8.6,3.06-12.89.23-.94.55-1.48,1.47-2.22,3.34-2.62,6.53-5.78,10.73-7.72l.32.2h0Zm87.83,16.79c-2.51,0-4.96-.27-7.47-.27.7-7.05,2.7-14.1,4.33-21.15.97-3.96,1.84-7.92,2.81-11.89,1.95-7.99,4-15.98,5.76-23.97.41-1.68.82-3.36.95-5.04.16-1.41-.32-1.75-2.27-1.75h-25.68c-.65,0-1.44.2-2.04.34l-1.23,5.04c-1.64,6.72-3.02,13.5-4.66,20.21-1.85,7.59-3.99,15.18-5.84,22.76l-7.63,31.23c-.31,1.28-.55,1.88,1.49,1.88,2.7,0,5.54-.2,8.33-.2,18.15,0,36.3.34,54.44.34h2.51c.26-.67.62-1.41.79-2.08,1.13-4.63,2.22-9.47,2.98-14.1.2-1.21.13-1.68-1.73-1.68-4.75,0-9.51.07-14.35.07-3.82,0-7.7.27-11.51.27h0Zm49.8-63.66c2.3,5.04,4.1,10.27,7.01,15.11.94,1.48,1.48,3.09,2.22,4.63,2.67,5.44,5.64,10.81,8,16.39.38.74.44,1.61.23,2.48-.05.2-.19.4-.24.6-2.01,4.43-11.02,12.36-15.14,16.65-3,3.16-23.8,25.05-23.8,25.05l-.13.54h30.05c.33-.2.66-.4.91-.67,6.83-6.25,12.3-13.03,18.89-19.41,1.12.74,1.97,1.48,2.04,2.69,0,.4-.01.81.19,1.14,1.71,3.29,3.47,6.38,4.77,9.8.84,2.28,1.99,4.43,2.93,6.65h32.2c-1.53-4.77-4.03-9.4-6.16-14.04-1.64-3.56-3.08-7.18-4.73-10.74-2.61-5.71-5.53-11.28-8.04-16.99-.24-.54-.47-1.14-.3-1.81.15-.6.63-1.07,1.14-1.61,4.46-4.16,7.83-8.8,11.96-13.16,1.62-1.68,3.41-3.29,4.94-4.97,4.33-4.77,8.67-9.6,12.76-14.5,1.04-1.21,1.63-2.48,2.5-3.76-7.52-.47-15.35-.4-22.98-.4-1.86,0-3.92.07-5.84.67-2.85,2.89-5.78,5.78-8.37,8.73-1.81,2.08-4.72,3.69-5.93,5.98l-.94.4c-2.13-4.23-4.56-8.39-5.97-12.89-.58-1.81-1.8-2.55-4.59-2.55h-29.59Zm50.32,31.7c.17.07.25.13.4.27-.22.13-.44.27-.75.4l-.23-.2.71-.6-.13.13h0Zm12.24,39.02l-.27-.4c.22-.13.34-.27.56-.4.23.2.38.34.52.54l-.81.27h0Zm-27.97-29.48c.12.27.24.54.25.87l-.5.13-.03-1.01.61-.2-.33.2h0Z"/></clipPath></defs><path class="uuid-0c9c2d99-2f8e-4bef-be1f-d5308d322e0c" d="m294.54,86.34h-11.83C261.53,37.86,211.61,3.79,153.4,3.79,75.99,3.79,13.25,64,13.25,138.28c0,1.12.04,2.23.06,3.35l-8.79,43.2h17.39c3.57,9.25,8.15,18.03,13.63,26.2h235.71c14.09-20.98,22.3-45.93,22.3-72.74,0-10.68-1.34-21.05-3.79-31.01l4.78-20.93Z"/><path d="m271.85,211.03c14.09-20.98,22.3-45.93,22.3-72.74C294.15,64,231.4,3.79,154,3.79S13.85,64,13.85,138.28c0,26.81,8.21,51.77,22.3,72.74h235.71Z"/><g><path class="uuid-9f18b852-4410-4c43-8868-61751401ae0f" d="m57.35,100.64l-.22-.03c.08.04.16.04.22.03Z"/><path class="uuid-9f18b852-4410-4c43-8868-61751401ae0f" d="m261.9,27.29c-1.5-.38-3.43-.38-4.88-.3.1-.59.18-1.24.22-1.89.07-1.32-.07-2.63-.47-3.59-.24-.59-.4-1.24-.64-1.84-.36-.89-.84-1.7-1.62-2.32-1.04-.83-2.75-1.38-5.87-.76-2.11.48-3.49,1.8-4.32,3.5-.79,1.62-1.11,3.52-1.18,5.17-.06,1.62.09,2.92.15,3.34l-6.71.73c-.36-.59-.97-1.6-1.52-2.61-.41-.76-.79-1.5-.98-2.03-.2-.56-.6-1.05-1.24-1.44-.77-.47-2.08-.76-3.86-.73-1.79.02-4.12.33-6.89,1.05-.9.24-1.84.54-2.82.87-2.82,1.06-4,2.8-4.31,4.62-.24,1.44.01,2.99.59,4.39.35.86.81,1.65,1.25,2.34l-64.84,19.51c-5.6,1.72-11.22,2.26-16.38,2.2,1.05-2.44,2.97-7.9,2.07-13.57-.69-4.35-2.99-8.85-8.53-12.26-5.46-3.36-10.82-3.63-15.44-2.64-8.11,1.75-13.9,7.54-13.9,7.54-.27.28-.42.64-.52,1.03-.86-.64-1.79-1.32-2.81-2.02-2.42-1.66-5.23-3.41-8.2-4.91-3.05-1.54-6.19-2.56-8.99-3.25-5.23-1.29-9.25-1.37-9.25-1.37-.46,0-.86.21-1.18.54-2.88-2.04-6.06-3.9-9.29-5.11-3.51-1.3-7.09-1.82-10.44-1.06-2.3.52-4.48,1.67-6.48,3.53-4.45,4.39-6.16,9.93-6.22,15.57-.05,4.46.92,8.93,2.19,12.81,1.23,3.74,2.71,6.9,3.76,8.92-.13.03-.27.05-.39.09-3.9,1.03-7.29,2.59-9.73,4.72-2.34,2.04-3.84,4.65-4.3,7.81-.57,4.11,1.51,8.43,5.59,12.16,2.78,2.54,6.5,4.87,10.6,6.81,3.55,1.67,7.39,3.04,11.16,4.05.88.22,1.75.41,2.62.6-.07.76-.08,1.55-.15,2.15l-.11.61c-.07.22-.16.38-.3.41l.22.03-.06.33,4.38,1.44s6.46,3.16,13.83,3.57l26.74.25,9.42,1.17c.03.09.03.19.07.27.28.56.76.91,1.28.94l2.35-3.44,2.46-6.06c2,.07,4.15.13,6.42.14,3.53.02,7.36-.04,11.41-.23,3.64-.17,7.45-.47,11.37-.84,14.4-1.36,30.33-3.94,44.87-8.4,8.85-2.76,16.33-5.78,22.67-8.82,5-2.4,9.3-4.78,13-7.08,3.17-1.97,5.89-3.88,8.27-5.57,3.92-2.83,6.74-5.57,8.74-7.93.41-.48.77-.94,1.11-1.38.32.58.7,1.27,1.09,1.97.97,1.71,1.98,3.39,1.98,3.39.14.23.35.36.58.36.23,0,.43-.14.54-.37l5.65-11.27c.1-.2.12-.44.08-.66,1.07-1.95,4.65-8.89,7.02-14.46.94-2.21,1.69-4.22,2.04-5.62.21-.85.27-1.55.22-2.01-.15-1.51-1.38-2.62-3.2-3.08Z"/></g><g class="uuid-62f2a5ba-d9ea-4661-ab7f-904e8d733465"><g><path class="uuid-4499c37f-ca97-40c2-83d6-e8619315dd3a" d="m49.81,212.01s-8.24-1.36-8.44-1.21c-.19.15-.68-9.1-3.39-14.56-2.71-5.46-10.58-7.91-15.55-11.81-4.97-3.9-25.73-14.66-30-22.15-1.62-2.84,6.44-18.51,13.37-29.24,3.45-5.35,12.76-12.72,17.01-16.67,4.24-3.94,15.57-17.46,18.19-18.77,1.23-.61,12.03,1.8,15.66,3.37,1.25.54.1-4.9,1.75-5.46.09-.03-27.56-6.95-28.65-19.53-.72-8.34,12.82-11.91,14.06-12.51,1.24-.59-15.14-22.47.63-37.34,10.08-9.51,25.76,3.31,25.62,3.42s9.19-1.86,29.44,9.28c1.79.98,10.26-12.94,26.5-6.03,16.1,6.84,8.28,25.9,8.3,26.01.01.07,9.72,3.05,48.13-10.89,10.75-3.9,23.48-5.34,34.11-10.68,1.55-.78-5.31-8.44,6.13-11.46,11.45-3.03,13.52,4.83,13.48,4.92-.04.09,7.97-1.8,7.97-1.8,0,0-.71-9.96,6.19-10.26,6.91-.29,5.2,9.49,5.2,9.49,0,0,7.79.02,8.03,2.81.24,2.79-6.46,18.67-9.13,21.63-2.67,2.97-6.55,2.92-6.68,2.37-.13-.55-22.33,25.56-65.09,34.7-42.76,9.14-66.38,8.08-66.38,8.08l-3.2,9.91s8.93.21,13.51,3.42c4.58,3.21,9.59,10.71,13.64,17.58,4.05,6.87,23.66,32.31,23.66,32.31l-9.36,34.47c-33.13-1.04-66.96-3.54-90.35,15.34l-14.36,1.26h0Zm-22.67-59.66s4.6,5.16,11.05,10.28c6.45,5.12,11.15,7.33,11.15,7.33,0,0,4-8.45,5.86-15.59,2.1-8.07-9.09-17.7-9.09-17.7,0,0-6.5,3.7-10.25,4.69-3.75,1-8.73,11-8.73,11h0Z"/><path class="uuid-1da91771-1f33-415a-8952-c96ae4f3e66f" d="m86.41,211.54c-.25-.56-7.96-17.42-10.09-23.54-2.13-6.12-7.43-25.76-7.8-31.11-.37-5.35-.01-26-.27-28.68-.26-2.69-1.12-10.39-3.69-16.91-2.57-6.52-3.14-8.49-3.14-8.49l-4.38-1.44,1.06-5.65c15.76,3.28,28.39,3.57,45.41,2.01,3.06-.28,9.88-.02,12.98-.46l-2.66,9.72-4.86.32s-.35,5.7.58,7.63c2.84,5.92,15.42,17.57,15.42,17.57,0,0,4.02,18.37,4.05,18.31.03-.06,4.33,17.15,4.33,17.15l3.8,30.92,4.51,7.73s-55,5.49-55.25,4.92h0Z"/><path class="uuid-1e5b5492-36f9-4e75-bcb3-36855ee0430b" d="m208.35,59.66l7.6,11.94,3.29-13.99s-2.14.32-5.04.85c-2.9.53-5.84,1.2-5.84,1.2h0Z"/><polygon class="uuid-1e5b5492-36f9-4e75-bcb3-36855ee0430b" points="246.82 53.83 245.17 57.71 249.05 64.06 254.08 53.11 246.82 53.83 246.82 53.83"/><path class="uuid-1e5b5492-36f9-4e75-bcb3-36855ee0430b" d="m69.11,28.84s5.05,4.59,9.67,8.09c4.9,3.72,7.17,10.32,9.49,14.18,2.32,3.86,5.39,7.98,7.33,9.45,1.94,1.48,17.04,5.11,20.09,5.13,20.16.12,35.89-7.6,35.89-7.6,0,0-18.76,5.01-41.53-3.34-6.13-2.25-9.22-9.92-10.41-12.65-1.19-2.73-1.99-3.88-2.48-4.47-.49-.59-14.56-7.15-16.61-7.74-2.05-.6-11.45-1.05-11.45-1.05h0Z"/><path class="uuid-1e5b5492-36f9-4e75-bcb3-36855ee0430b" d="m123.94,42.95l-9.5.77-4.53,4.05,2.37,7.51s10.37,3.48,11.87,2.76c1.53-.72,3.29-13.52-.21-15.09h0Z"/><path class="uuid-4de40ef3-b4ee-4490-802b-05ce4de492d0" d="m123.93,42.81l-9.51.64s-.08.02-.11.05l-4.58,3.98c-.1.09-.14.25-.09.4l2.28,7.55c.05.15.15.27.28.31,0,0,4.75,1.71,8.29,2.62,1.84.48,3.39.67,3.93.44.39-.17.87-.86,1.25-1.97.65-1.89,1.18-5.1,1.18-8.01,0-1.98-.27-3.82-.85-5.1-.42-.93-1.02-1.58-1.75-1.94l-.32,1.05h0Zm-.29,1.31c.4.17.66.6.87,1.16.35.94.53,2.16.59,3.46.12,2.65-.22,5.62-.73,7.38-.11.36-.21.67-.33.91-.06.11-.08.22-.14.25-.55.28-2.39-.08-4.42-.54-2.87-.65-6.08-1.61-6.89-1.86l-2.3-6.98,4.27-3.93,9.42-.89-.32,1.05h0Z"/><path class="uuid-1e5b5492-36f9-4e75-bcb3-36855ee0430b" d="m51.71,41.47c-1.25,3.04-.53,11.09.81,14.37,2.48,6.04,17.95,5.14,19.02,2.34,1.92-5,2.72-9.67,2.81-11.34.1-1.86-7.08-4.97-12.24-5.81-6.12-1-10.4.44-10.4.44h0Z"/><path class="uuid-4de40ef3-b4ee-4490-802b-05ce4de492d0" d="m51.34,39.33c-.17.12-.3.48-.35.97l-.9.09c-.57,1.52-.81,4.03-.66,6.75.19,3.51.92,7.34,1.83,9.4.49,1.12,1.28,2.09,2.35,2.84,1.57,1.11,3.74,1.81,6.07,2.14,3.66.51,7.72.16,10.14-.69,1.47-.52,2.39-1.32,2.67-2.06.75-2.01,1.32-3.96,1.75-5.7.68-2.79.99-5.03,1.04-6.1.02-.53-.16-1.17-.67-1.77-.58-.69-1.7-1.47-3.14-2.19-2.6-1.3-6.29-2.51-9.3-2.96-2.01-.31-3.83-.36-5.37-.28-3.28.16-5.32.87-5.32.87l-.15-1.3h0Zm22.06,7.53c-.09,1.03-.42,2.98-1.05,5.37-.44,1.63-1.01,3.47-1.76,5.35-.04.1-.16.13-.29.21-.3.19-.69.35-1.14.49-2.23.7-5.95.9-9.28.29-1.63-.3-3.16-.8-4.36-1.54-.8-.5-1.44-1.1-1.74-1.89-.57-1.49-.93-4.03-1.04-6.54-.11-2.4.01-4.78.59-6.05l-.06-.56c.87-.16,2.12-.34,3.67-.38,1.47-.04,3.2.05,5.12.39,2,.35,4.31,1.06,6.36,1.89,1.66.68,3.15,1.44,4.15,2.17.35.25.71.66.84.8h0Zm-20.63-4.78c-.19.08-.41.15-.64.19l-.2.02s.29-.09.84-.21h0Z"/><path class="uuid-4de40ef3-b4ee-4490-802b-05ce4de492d0" d="m86.83,98.04s-6.74.13-15.81-1.18c-4.77-.69-10.19-1.77-15.6-3.51-6.31-1.95-12.79-5.05-17.57-8.62-2.33-1.74-4.24-3.56-5.44-5.48-.82-1.32-1.3-2.64-1.12-4,.35-2.77,2.03-4.79,4.42-6.41,3.11-2.11,7.38-3.47,12.02-4.36,14.65-2.83,33.04-.97,33.04-.97.49.06.91-.37.93-.97.02-.6-.35-1.13-.84-1.2,0,0-11.45-1.83-23.62-1.57-5.41.12-10.96.66-15.73,1.92-3.9,1.03-7.29,2.59-9.73,4.72-2.34,2.04-3.84,4.65-4.3,7.81-.57,4.11,1.51,8.43,5.59,12.16,2.78,2.54,6.5,4.87,10.6,6.81,3.55,1.67,7.39,3.04,11.16,4.05,5.61,1.44,11.19,2.23,16.1,2.59,9.24.69,16.05,0,16.05,0,.4-.02.69-.44.65-.93-.04-.49-.4-.87-.8-.84h0Z"/><path class="uuid-4de40ef3-b4ee-4490-802b-05ce4de492d0" d="m80.46,37.58s.04.04.05.06l.05.03h0s0,0,0,0c0,.02-.03,0-.05-.03"/><path class="uuid-4de40ef3-b4ee-4490-802b-05ce4de492d0" d="m78.74,35.83c-3.54-3.56-11.41-10.92-19.66-13.99-3.51-1.3-7.09-1.82-10.44-1.06-2.3.52-4.48,1.67-6.48,3.53-4.45,4.39-6.16,9.93-6.22,15.57-.05,4.46.92,8.93,2.19,12.81,2.15,6.55,5.1,11.33,5.1,11.33.23.42.69.54,1.02.28.33-.26.41-.81.18-1.22,0,0-1.83-3.72-3.35-8.93-1.18-4.05-2.13-9.02-1.83-13.86.28-4.47,1.72-8.83,5.41-12.13,1.52-1.44,3.19-2.31,4.94-2.76,2.79-.73,5.78-.42,8.75.47,7.93,2.39,15.71,8.76,19.26,11.84.89.77,1.52,1.34,1.82,1.6.62.53,1.1.32,1.15.28.43-.26.59-.91.35-1.45-.09-.2-.22-.36-.37-.47h0"/><path class="uuid-4de40ef3-b4ee-4490-802b-05ce4de492d0" d="m69.81,31.2s3.72-.19,8.61.65c2.63.45,5.59,1.19,8.5,2.41,2.92,1.23,5.7,2.72,8.09,4.15,4.58,2.74,7.74,5.24,7.74,5.24.41.35.97.24,1.23-.25.26-.49.14-1.17-.27-1.52,0,0-3.13-2.8-7.71-5.96-2.42-1.66-5.23-3.41-8.2-4.91-3.05-1.54-6.19-2.56-8.99-3.25-5.23-1.29-9.25-1.37-9.25-1.37-1.08.01-1.9,1.1-1.83,2.42.07,1.32,1.01,2.38,2.09,2.37h0Z"/><path class="uuid-4de40ef3-b4ee-4490-802b-05ce4de492d0" d="m101.96,40.66s4.97-5.37,12.09-7.27c4-1.07,8.68-1.07,13.54,1.65,4.63,2.58,6.7,6.12,7.39,9.68,1.28,6.68-2,13.24-2,13.24-.26.49-.13,1.17.29,1.51.42.34.97.22,1.22-.27,0,0,3.91-7.27,2.7-14.91-.69-4.35-2.99-8.85-8.53-12.26-5.46-3.36-10.82-3.63-15.44-2.64-8.11,1.75-13.9,7.54-13.9,7.54-.8.83-.86,2.34-.14,3.37.73,1.03,1.97,1.19,2.77.36h0Z"/><path class="uuid-4de40ef3-b4ee-4490-802b-05ce4de492d0" d="m108.71,45.37l2.78,9.81c.09.26.26.47.48.56,0,0,3.02,1.45,7.94,2.75,3.32.88,7.49,1.63,12.15,1.98,6.17.46,13.17.12,20.16-1.93l67.01-19.46c.79-.23,1.24-1.22,1.01-2.2-.24-.98-1.07-1.59-1.86-1.36l-66.86,20.12c-6.74,2.07-13.5,2.45-19.46,2.11-4.54-.26-8.61-1-11.87-1.68-3.91-.82-6.63-1.64-7.51-1.92l-3.38-9.03c-.07-.2-.25-.31-.41-.24-.16.07-.24.29-.17.49h0Z"/><path class="uuid-4de40ef3-b4ee-4490-802b-05ce4de492d0" d="m219.19,37.03s-2.12-3.04-2.22-5.77c-.05-1.35.69-2.38,2.76-2.96,3.06-1.08,5.69-1.72,7.75-2.03,1.47-.22,2.64-.29,3.46-.13.26.05.61.19.61.19,0,0-.05-.11-.07-.16.27.63.77,1.52,1.33,2.4.98,1.56,2.11,3.12,2.11,3.12.23.34.59.52.94.47l14.18-2.98c.22-.04.37-.29.33-.57-.04-.28-.26-.47-.48-.44l-13.79,1.5c-.36-.59-.97-1.6-1.52-2.6-.41-.76-.79-1.5-.98-2.03-.2-.56-.6-1.05-1.24-1.44-.77-.47-2.08-.76-3.86-.73-1.79.02-4.12.33-6.89,1.05-.9.24-1.84.54-2.82.87-2.82,1.06-4,2.8-4.31,4.62-.24,1.44.01,2.99.59,4.39,1.05,2.54,2.97,4.6,2.97,4.6.33.4.85.42,1.16.05.31-.38.3-1.01-.03-1.41h0Z"/><path class="uuid-4de40ef3-b4ee-4490-802b-05ce4de492d0" d="m244.47,28.97s-.11-3.22.99-5.84c.58-1.38,1.57-2.55,3.27-2.76,2.01-.32,3.1-.2,3.75.34.34.28.48.68.62,1.08.2.54.37,1.09.6,1.6.26.59.22,1.46.17,2.28-.11,1.53-.43,2.94-.43,2.94-.14.55-.03,1.16.29,1.62.32.46.8.69,1.28.6,0,0,2.26-.47,4.44-.47.9,0,1.78.06,2.45.31.16.06.31.12.43.21.05.04.13.03.14.09.06.44-.13,1.24-.42,2.29-.48,1.73-1.26,3.96-2.14,6.29-2.22,5.83-5.07,12.28-5.51,13.12-.13.22-.08.54.12.71.19.17.45.12.58-.1.56-.91,4.66-8.77,7.28-14.92.94-2.21,1.69-4.22,2.04-5.62.21-.85.27-1.55.22-2.01-.15-1.51-1.38-2.62-3.2-3.08-1.5-.38-3.43-.38-4.88-.3.1-.59.18-1.24.22-1.89.07-1.32-.07-2.63-.47-3.59-.24-.59-.4-1.24-.64-1.84-.36-.89-.84-1.7-1.62-2.32-1.04-.83-2.75-1.38-5.87-.76-2.11.48-3.49,1.8-4.32,3.5-.79,1.62-1.11,3.52-1.18,5.17-.07,1.97.17,3.49.17,3.49.06.55.47.97.91.93.45-.04.77-.51.71-1.06h0Z"/><path class="uuid-4de40ef3-b4ee-4490-802b-05ce4de492d0" d="m83.02,42.18s2.96,6.1,6.17,11.26c1.83,2.94,3.75,5.55,5.2,6.67,1.95,1.49,6,2.99,10.05,4.07,4.29,1.15,8.58,1.85,10.33,1.69.15-.01.26-.17.24-.35-.02-.18-.15-.32-.3-.31-1.73.11-5.93-.74-10.12-1.99-3.9-1.16-7.8-2.68-9.66-4.17-1.36-1.08-3.11-3.63-4.84-6.41-3.17-5.1-6.21-11.05-6.21-11.05-.15-.29-.46-.4-.69-.24-.23.16-.3.53-.16.83h0Z"/><path class="uuid-4de40ef3-b4ee-4490-802b-05ce4de492d0" d="m123.48,65.6s1.77-.05,4.64-.37c1.33-.14,2.88-.35,4.61-.63,1.15-.19,2.38-.41,3.66-.69,1.73-.37,3.56-.82,5.43-1.34,5.82-1.6,12.13-3.87,17.49-6.85.13-.07.19-.27.12-.43-.07-.17-.23-.25-.36-.18-4.31,2.2-9.2,3.9-13.95,5.23-2.21.62-4.39,1.16-6.47,1.64-1.51.35-2.97.67-4.34.98-2.03.45-3.87.85-5.43,1.19-3.35.71-5.46,1.11-5.46,1.11-.07,0-.13.09-.12.18.01.09.08.16.15.15h0Z"/><path class="uuid-4de40ef3-b4ee-4490-802b-05ce4de492d0" d="m89.94,35.62s.9,1.04,1.87,3.05c.32.66.64,1.43.95,2.3.27.73.54,1.53.77,2.41.31,1.14.59,2.4.75,3.81,0,.17.13.31.28.31s.25-.15.24-.32c0-1.75-.15-3.32-.42-4.72-.14-.71-.31-1.37-.51-1.99-.31-.96-.67-1.8-1.02-2.51-1.11-2.24-2.22-3.33-2.22-3.33-.24-.25-.58-.23-.78.05-.19.27-.16.7.08.95h0Z"/><path class="uuid-4de40ef3-b4ee-4490-802b-05ce4de492d0" d="m207.81,61.4l7.7,10.77c.13.19.33.29.53.25.19-.04.35-.21.4-.44,0,0,.55-2.65,1.24-5.64.9-3.91,2-8.4,2-8.4.09-.39-.11-.82-.43-.95-.33-.13-.67.08-.76.48,0,0-.93,4.56-1.8,8.48-.38,1.74-.76,3.35-1.01,4.39l-6.46-10.33c-.34-.5-.93-.6-1.32-.22-.39.38-.44,1.1-.1,1.6h0Z"/><path class="uuid-4de40ef3-b4ee-4490-802b-05ce4de492d0" d="m246.83,52.29s-1.08,2.49-4.41,5.96c-1.99,2.07-4.76,4.47-8.57,6.87-2.4,1.55-5.16,3.23-8.32,5.07-3.67,2.13-7.89,4.43-12.8,6.72-6.24,2.91-13.59,5.83-22.28,8.46-11.37,3.49-23.61,5.73-35.26,7.27-6.55.86-12.93,1.46-18.85,1.96-2.81.23-5.53.43-8.11.64-5.07.41-9.64.77-13.54,1.03-8.39.55-13.58.71-13.58.71l.02,1.38s4.31.52,11.44.91c3.27.18,7.13.35,11.43.37,3.53.02,7.36-.04,11.41-.23,3.64-.17,7.45-.47,11.37-.84,14.4-1.36,30.33-3.94,44.87-8.4,8.85-2.76,16.33-5.78,22.67-8.82,5-2.4,9.3-4.78,13-7.08,3.17-1.97,5.89-3.88,8.27-5.57,3.92-2.83,6.74-5.57,8.74-7.93,3.57-4.22,4.59-7.21,4.59-7.21l-2.09-1.29h0Z"/><path class="uuid-4de40ef3-b4ee-4490-802b-05ce4de492d0" d="m253.99,52.47l-5.02,10.34c-.39-.63-.91-1.47-1.44-2.3-1.05-1.65-2.14-3.25-2.14-3.25-.16-.26-.46-.33-.66-.15-.21.18-.25.54-.09.8,0,0,.93,1.74,1.9,3.46.97,1.71,1.98,3.39,1.98,3.39.14.23.35.36.58.36.23,0,.43-.14.54-.37l5.65-11.27c.21-.42.09-.99-.27-1.27-.36-.28-.81-.16-1.02.26h0Z"/><path class="uuid-4de40ef3-b4ee-4490-802b-05ce4de492d0" d="m223.8,35.34c.04-.38.22-1.66.62-2.61.09-.23.21-.41.37-.5.01,0,0,.05.02.05.05.01.11.05.18.09.64.32,1.15.73,1.58,1.13.88.82,1.37,1.55,1.37,1.55.2.48.68.7,1.06.48.39-.22.54-.79.34-1.27,0,0-.37-1.24-1.38-2.62-.31-.43-.7-.85-1.16-1.24-.27-.23-.57-.43-.89-.63-1.19-.62-2.06-.37-2.67.35-.42.51-.75,1.27-.89,2.13-.2,1.19-.16,2.49-.15,2.91-.02.54.33,1.02.77,1.07.44.05.82-.34.83-.88h0Z"/><line class="uuid-c674f93a-b6c7-4d64-b2f1-856e9f83eb4a" x1="57.41" y1="96.2" x2="56.84" y2="101.52"/><path class="uuid-4de40ef3-b4ee-4490-802b-05ce4de492d0" d="m-6.28,161.22c.12-.29.26-.63.41-1.01,1.73-4.39,5.39-14.59,8.06-19.26,1.32-2.31,2.74-4.23,4.55-6.29,2.93-3.32,6.85-6.95,12.89-12.83,6.93-6.81,12.71-13.89,16.94-18.31,1.73-1.81,3.17-3.17,4.33-3.79,1.65-.89,3.48-.87,5.48-.45,2.7.57,5.7,1.86,9.01,2.98,2.29.77,4.95,1.56,7.37,2.24,4.02,1.13,7.39,1.96,7.39,1.96.28.08.55-.14.6-.47.05-.34-.14-.68-.42-.75,0,0-4.19-1.27-8.76-2.83-1.96-.67-3.99-1.38-5.79-2.08-4.03-1.55-7.6-3.3-10.77-3.75-1.8-.25-3.48-.09-5.05.68-1.32.65-2.99,2.05-4.96,4.01-4.3,4.28-10.13,11.26-17.13,17.9-6.15,5.88-10.14,9.51-13.13,12.85-1.97,2.2-3.52,4.29-4.96,6.77-2.75,4.76-6.57,15.18-8.36,19.67-.34.85-.73,1.72-.73,1.72,0,0,.44-.43.54-.47.48-.22.89-.11,1.23.12-.54-.35-3.39.79-1.58,3.02.2.25.64.76,1.27,1.45,3.01,3.32,10.26,10.72,13.89,12.09,1.42.53,3.6,1.72,6.03,3.14,2.28,1.33,4.76,2.89,7.05,4.32,2.99,1.87,5.65,3.54,7.04,4.43,2.26,1.39,7.15,4.7,11.51,8.54,2.65,2.34,5.12,4.84,6.63,7.28.14.25.41.32.61.16.19-.16.24-.49.1-.73-1.4-2.69-3.76-5.58-6.37-8.26-4.23-4.35-9.08-8.13-11.32-9.75-2.14-1.48-7.25-5.03-12.03-8-3.38-2.1-6.6-3.9-8.51-4.62-3.34-1.26-9.91-8.21-12.68-11.26l-.37-.41h0Zm-1.66,2.04c-.41.05-.77-.12-.91-.22.39.25.7.26.91.22h0Zm.85-.48l.06-.07c-.06.08-.13.15-.2.21l.07-.06s.05-.05.07-.08h0Z"/><path class="uuid-4de40ef3-b4ee-4490-802b-05ce4de492d0" d="m22.12,142.69s-.2,2.68.78,5.61c.56,1.67,1.52,3.37,3.04,4.77,1.01.9,2.48,2.3,4.26,3.89,1.31,1.17,2.8,2.44,4.35,3.76,4.61,3.94,9.83,8.25,13.32,10.92,3.26,2.47,7.16,5.7,10.37,8.76,2.7,2.57,4.93,4.97,5.69,6.68.61,1.36.68,4.92.66,8.79-.03,5.13-.37,10.76-.53,13.16l-13.15,2.34-7.92-1.45c-.19-.58-.46-1.4-.78-2.34-.78-2.29-1.87-5.3-2.58-7.49-.42-1.3-.74-2.25-.75-2.51,0-.38-.25-.71-.56-.73-.31-.02-.57.27-.57.65-.03.45.48,3.01,1.15,5.87.92,3.9,2.11,8.33,2.11,8.33.16.54.55.93,1.01,1.02l8.82,1.78c.13.02.25.03.38,0l14.32-2.44c.57-.1,1-.65,1.06-1.36,0,0,.77-9.75.66-17.08-.05-3.61-.38-6.67-.99-8-.88-1.96-3.35-4.82-6.46-7.78-3.29-3.13-7.29-6.42-10.64-8.95-3.71-2.78-9.32-7.47-14.17-11.43-1.25-1.02-2.45-2-3.56-2.86-1.88-1.46-3.49-2.62-4.57-3.4-1.35-.94-2.26-2.22-2.88-3.51-1.21-2.5-1.38-4.95-1.38-4.95,0-.18-.12-.33-.26-.34-.14-.01-.26.12-.26.3h0Z"/><path class="uuid-4de40ef3-b4ee-4490-802b-05ce4de492d0" d="m28.51,151.68s.53-1.95,2.74-4.33c.95-1.03,2.18-2.18,3.89-3.22,1.43-.91,3.56-1.98,5.93-3.2,1.93-.99,4-2.09,6.06-3.15,6.26-3.21,12.23-6.15,12.23-6.15.22-.09.33-.39.24-.67-.09-.28-.34-.43-.56-.34,0,0-7.98,2.69-15.28,5.73-1.75.73-3.46,1.49-5.01,2.24-1.98.97-3.68,1.95-4.9,2.74-2.4,1.64-4.03,3.34-5,4.95-1.74,2.85-1.72,5.08-1.72,5.08-.05.46.22.91.6,1,.38.09.73-.21.78-.68h0Z"/><path class="uuid-4de40ef3-b4ee-4490-802b-05ce4de492d0" d="m46.69,139.93s2.66,3.11,4.83,6.23c1.07,1.54,2.06,3.05,2.36,4.17.1.39.01.98-.1,1.73-.23,1.54-.73,3.5-1.32,5.54-.59,2.01-1.28,4.08-1.9,5.93-1.11,3.32-2.02,5.89-2.02,5.89l-.56,1.44,2.42,1.53.56-1.44s1-2.34,2.13-5.5c.94-2.61,1.97-5.79,2.7-8.59.86-3.26,1.21-6.14.85-7.47-.4-1.46-1.56-3.51-2.99-5.46-2.35-3.22-5.29-6.29-5.29-6.29l-.98-1.08-1.66,2.27.98,1.08h0Z"/><path class="uuid-4de40ef3-b4ee-4490-802b-05ce4de492d0" d="m115.33,96.74l-3.94,9.54c-.23.55-.2,1.23.08,1.78.28.56.76.91,1.28.94,0,0,4.67.28,9.03,1.57,2.02.6,3.99,1.4,5.29,2.55,1.96,1.73,8.83,11.24,15.79,20.94,2.87,4,5.72,8.08,8.3,11.62.73,1,1.44,1.95,2.13,2.85,1.28,1.65,2.45,3.09,3.46,4.32,2.19,2.65,7.63,8.86,7.63,8.86l.27-.11s-4.68-7.13-6.45-10.21c-.82-1.42-1.8-3.07-2.93-4.87-.57-.92-1.19-1.86-1.84-2.84-1.37-2.06-2.89-4.23-4.45-6.47-8.19-11.75-17.81-24.96-20.21-27.08-1.6-1.41-3.97-2.46-6.45-3.18-2.62-.76-5.35-1.18-7.23-1.4l2.87-7.07-2.66-1.76h0Z"/><path class="uuid-4de40ef3-b4ee-4490-802b-05ce4de492d0" d="m60.52,103.53s2.22,5.02,4.06,11.36c1.08,3.74,2.02,7.93,2.28,11.83.51,7.82-.05,17.8,0,24.79.02,2.65.13,4.88.4,6.44,1.14,6.6,3.87,17.01,7,26.46.78,2.36,1.6,4.67,2.42,6.83,1.48,3.89,2.98,7.32,4.27,9.92.11.24.35.34.54.22.19-.12.26-.41.15-.65-.72-1.77-1.49-3.92-2.3-6.3-.68-1.99-1.37-4.15-2.09-6.41-.4-1.26-.8-2.55-1.21-3.86-.93-2.98-1.86-6.04-2.72-9.06-1.88-6.6-3.46-12.95-4.23-17.49-.25-1.46-.33-3.53-.35-5.99-.05-7.04.5-17.08-.02-24.95-.22-3.26-.89-6.73-1.73-9.99-1.97-7.62-4.86-14.11-4.86-14.11-.24-.55-.79-.77-1.22-.51-.43.27-.59.92-.35,1.47h0Z"/><path class="uuid-4de40ef3-b4ee-4490-802b-05ce4de492d0" d="m134.59,179.8c-.01.12.03.26.13.33.13.1.29.05.36-.1.06-.11-.16-2.38-.7-5.89-.19-1.26-.42-2.68-.69-4.22-.23-1.32-.5-2.73-.79-4.19-1.23-6.18-2.84-13.38-4.2-19.43-1.55-6.91-2.88-12.32-3.23-13.11-.39-.87-2.15-3.21-4.38-5.94-3.88-4.75-9.2-10.82-10.57-12.4-.57-.61-.86-1.52-1.03-2.47-.43-2.35-.16-4.91-.16-4.91.06-.32-.11-.65-.38-.74-.27-.09-.53.1-.59.42,0,0-.69,2.78-.45,5.44.13,1.46.58,2.85,1.38,3.85,1.36,1.58,6.61,7.67,10.46,12.42,2.03,2.5,3.67,4.59,4.03,5.37.34.76,1.55,5.96,3.07,12.57,1.38,6.03,2.94,13.23,4.34,19.36.33,1.45.66,2.84.98,4.14.37,1.51.73,2.89,1.05,4.12.61,2.35,1.11,4.08,1.28,4.93.05.22.01.45.07.46h0Z"/><path class="uuid-4de40ef3-b4ee-4490-802b-05ce4de492d0" d="m66.48,118.66s8.25-2.19,23.37-1.59c6.61.26,14.52,1.05,23.62,2.79.17.03.32-.1.34-.31.02-.2-.1-.4-.27-.43-9.13-1.92-17.07-2.87-23.71-3.26-15.32-.91-23.71,1.16-23.71,1.16-.37.09-.59.54-.49,1,.1.46.48.75.85.66h0Z"/><path class="uuid-4de40ef3-b4ee-4490-802b-05ce4de492d0" d="m68.2,142.04s12.32-2.52,29.24-2.63c8.93-.06,19.14.54,29.51,2.54.17.03.32-.1.34-.31.02-.2-.1-.4-.27-.43-10.4-2.17-20.66-2.94-29.63-3.02-17.05-.15-29.48,2.19-29.48,2.19-.37.07-.61.51-.53.97.08.46.45.77.82.7h0Z"/><path class="uuid-4de40ef3-b4ee-4490-802b-05ce4de492d0" d="m70.57,167.16s12.95-2.05,30.79-2.68c9.38-.33,20.12-.27,31.04.69.17.02.31-.14.31-.35,0-.21-.13-.39-.3-.4-10.94-1.13-21.71-1.35-31.13-1.16-17.93.36-30.96,2.23-30.96,2.23-.38.06-.63.48-.56.94.07.46.43.79.8.74h0Z"/><path class="uuid-4de40ef3-b4ee-4490-802b-05ce4de492d0" d="m78.13,192.84s10.67.92,20.41,1.59c5.56.38,10.82.67,13.62.67,2.64,0,6.5-.42,10.43-.96,7.58-1.04,15.46-2.56,15.46-2.56.07-.01.11-.09.1-.17-.01-.08-.08-.14-.15-.13,0,0-7.9,1.33-15.5,2.2-3.92.45-7.76.77-10.38.72-2.8-.06-8.04-.47-13.58-.98-9.73-.89-20.39-2.05-20.39-2.05-.38-.04-.7.31-.71.77,0,.46.29.87.67.91h0Z"/><path class="uuid-4499c37f-ca97-40c2-83d6-e8619315dd3a" d="m60.21,40.45c3.84,1.39,3.43,16.53-.21,15.07-3.59-1.45-3.74-16.49.21-15.07h0Z"/><path class="uuid-4de40ef3-b4ee-4490-802b-05ce4de492d0" d="m60.52,38.89c-1.16-.4-2.12-.05-2.88.89-.86,1.08-1.45,3.18-1.57,5.61-.14,2.8.24,6.01,1.08,8.23.63,1.65,1.52,2.79,2.55,3.19,1.07.4,1.99.06,2.7-.93.77-1.08,1.32-3.09,1.41-5.4.09-2.3-.18-4.86-.83-6.85-.62-1.89-1.53-3.26-2.69-3.54l.24-1.19h0Zm-.38,1.93c.6.29,1,1,1.3,1.91.38,1.11.54,2.52.59,4,.04,1.19-.03,2.41-.16,3.55-.15,1.23-.4,2.35-.76,3.16-.23.5-.43.95-.82.78-.38-.16-.63-.65-.87-1.22-.6-1.44-.88-3.53-.9-5.55-.01-1.75.18-3.45.63-4.61.19-.5.36-.98.75-.83l.24-1.19h0Z"/><path class="uuid-4499c37f-ca97-40c2-83d6-e8619315dd3a" d="m116.53,43.16c2.59,1.25,2.47,12.53.01,11.23-2.42-1.28-2.68-12.52-.01-11.23h0Z"/><path class="uuid-4de40ef3-b4ee-4490-802b-05ce4de492d0" d="m116.96,41.65c-1.08-.5-1.96-.18-2.61.83-.56.87-.94,2.5-.97,4.4-.03,2.08.28,4.45.88,6.12.48,1.33,1.15,2.27,1.89,2.64.98.48,1.8.19,2.4-.84.49-.86.84-2.41.83-4.19,0-1.7-.26-3.58-.76-5.05-.49-1.44-1.17-2.49-1.98-2.75l.33-1.15h0Zm-.05,11.48c-.06.14-.13.19-.19.07-.04-.08.1-.11.19-.07h0Zm0,0c-.21-.14-.32-.5-.45-.89-.26-.75-.43-1.7-.52-2.69-.14-1.47-.09-3.02.17-4.14.05-.21.1-.52.16-.71-.06,0-.13,0-.17-.03l.33-1.15c.67.44.92,1.69,1.05,3.14.08.83.08,1.72.04,2.59-.03.89-.13,1.74-.27,2.49-.09.45-.21,1.11-.34,1.39h0Zm-.64-8.43c.11,0,.21-.05.15-.12-.06-.08-.11-.01-.15.12h0Z"/><path class="uuid-4de40ef3-b4ee-4490-802b-05ce4de492d0" d="m47.1,46.56c.94-.82,1.81-1.44,2.67-2.04.84-.58,1.69-1.01,2.64-1.37.68-.26,1.42-.45,2.26-.62,1.06-.21,2.27-.4,3.7-.46,4.17-.28,7.75.85,10.77,2.53,4.29,2.39,7.48,5.82,9.59,8.08.42.48,1.06.48,1.43,0,.37-.48.33-1.27-.08-1.75-2.11-2.61-5.29-6.6-9.74-9.54-3.36-2.23-7.43-3.79-12.26-3.85-1.66.02-3.06.12-4.28.4-1.07.25-2.01.6-2.85,1.07-1.17.66-2.17,1.46-3.07,2.52-.78.92-1.47,1.98-2.23,3.24-.38.46-.37,1.23.03,1.73.4.49,1.03.52,1.42.06h0Z"/><path class="uuid-4de40ef3-b4ee-4490-802b-05ce4de492d0" d="m111.14,48.57c.75-.45,1.54-.84,2.42-1.34.71-.4,1.47-.79,2.29-1.19.57-.28,1.17-.56,1.8-.83.86-.37,1.77-.77,2.81-1.01,1.11-.3,2.16-.16,3.16.22,2.13.81,4.02,2.33,5.62,2.96.47.24.99-.02,1.16-.58.17-.56-.07-1.21-.54-1.45-1.54-.99-3.23-2.96-5.28-4.22-1.44-.89-3.03-1.34-4.79-1.22-1.3.14-2.49.38-3.55.8-.8.31-1.53.71-2.19,1.17-.9.64-1.68,1.35-2.35,2.13-.75.87-1.31,1.75-1.87,2.59-.42.41-.47,1.19-.11,1.73.36.54,1,.65,1.43.24h0Z"/><polyline class="uuid-1e5b5492-36f9-4e75-bcb3-36855ee0430b" points="138.61 76.53 144.82 87.71 147.64 76.45"/><path class="uuid-4de40ef3-b4ee-4490-802b-05ce4de492d0" d="m137.87,77.11s2.14,3.47,3.96,6.52c.47.78.91,1.54,1.29,2.2.74,1.3,1.25,2.23,1.25,2.23.12.22.33.34.55.32.21-.03.38-.2.44-.45,0,0,.55-2.1,1.22-4.46.87-3.1,1.92-6.65,1.92-6.65.14-.57-.13-1.2-.6-1.4-.47-.21-.97.09-1.12.66,0,0-.76,3.68-1.45,6.85-.27,1.22-.53,2.37-.72,3.2-.17-.3-.36-.65-.56-1.03-.36-.67-.78-1.45-1.2-2.27-1.65-3.18-3.5-6.89-3.5-6.89-.28-.51-.85-.67-1.25-.35-.41.32-.5,1-.22,1.51h0Z"/><polyline class="uuid-1e5b5492-36f9-4e75-bcb3-36855ee0430b" points="170.14 69.97 171.07 61.07 177.57 68.19"/><path class="uuid-4de40ef3-b4ee-4490-802b-05ce4de492d0" d="m171.03,70.17s.13-2.89.3-5.4c.06-.87.12-1.68.18-2.32.47.53,1.1,1.25,1.75,2.02,1.76,2.07,3.73,4.51,3.73,4.51.38.41.95.4,1.26-.04.32-.44.27-1.13-.11-1.55,0,0-2.2-2.13-4.07-4.03-1.43-1.45-2.65-2.78-2.65-2.78-.15-.17-.37-.23-.56-.15-.19.08-.32.28-.35.52,0,0-.19,1.67-.45,3.54-.35,2.47-.81,5.29-.81,5.29-.06.59.29,1.17.78,1.28.49.11.94-.29,1-.88h0Z"/><path class="uuid-4de40ef3-b4ee-4490-802b-05ce4de492d0" d="m68.24,76.85c11,1.8,23.21,3.26,34.28,3.5,13.55.18,27.89-1.02,41.15-3.02,16.08-2.42,30.59-5.97,40.21-9.39,12.48-4.45,24.32-7.66,35.02-9.93,14.58-3.09,27.01-4.4,35.96-4.6.28,0,.49-.29.47-.63-.02-.34-.26-.61-.54-.61-9.01.1-21.51,1.27-36.19,4.22-10.76,2.16-22.69,5.27-35.26,9.6-9.58,3.31-24.02,6.66-40.01,8.96-13.19,1.9-27.44,3.1-40.9,2.87-8.75-.08-18.23-.96-27.25-2.11-21.71-2.78-16.19-1.39-16.19-1.39-.31-.08-.23.75-.27,1.12"/></g></g><polygon points="272.65 183.21 5.12 183.21 25.12 86.73 295.14 86.52 272.65 183.21"/><g><polygon class="uuid-80bd710e-3174-47eb-8695-df985f94b3f9" points="43.57 202.26 47.15 186.93 50.06 186.93 48.43 193.93 48.49 193.93 54.37 186.93 57.28 186.93 51.88 193.07 54.44 202.26 51.36 202.26 49.64 195.46 47.55 197.68 46.48 202.26 43.57 202.26 43.57 202.26"/><path class="uuid-80bd710e-3174-47eb-8695-df985f94b3f9" d="m62.28,190.55c.14-.62.41-1.16.81-1.64.4-.47.87-.87,1.42-1.18.53-.3,1.1-.53,1.72-.69.62-.16,1.22-.24,1.81-.24s1.16.08,1.7.24c.54.16,1.02.39,1.42.69.38.32.66.71.84,1.18.17.47.19,1.02.05,1.64l-1.89,8.1c-.15.65-.42,1.2-.81,1.66-.39.46-.85.84-1.38,1.14-.55.32-1.13.55-1.75.71-.62.16-1.22.24-1.81.24s-1.15-.08-1.7-.24c-.54-.16-1.01-.39-1.39-.71-.4-.3-.7-.68-.87-1.14-.18-.46-.19-1.01-.04-1.66l1.89-8.1h0Zm1.02,8.1c-.12.53-.02.92.31,1.17.33.25.76.38,1.29.38s1.02-.13,1.47-.38c.45-.25.73-.64.86-1.17l1.89-8.1c.12-.53.02-.92-.31-1.17-.33-.25-.76-.38-1.3-.38s-1.02.13-1.47.38c-.45.25-.73.64-.86,1.17l-1.89,8.1h0Z"/><path class="uuid-80bd710e-3174-47eb-8695-df985f94b3f9" d="m81.85,189l-1.12,4.78h1.65c.51,0,.93-.05,1.26-.16.33-.11.6-.26.82-.46.2-.2.36-.45.49-.74.13-.29.23-.64.32-1.02.09-.39.14-.73.15-1.02.01-.29-.04-.55-.16-.76-.27-.4-.9-.6-1.91-.6h-1.51Zm-6.01,13.26l3.58-15.33h4.68c3.42,0,4.78,1.5,4.08,4.5-.21.9-.58,1.67-1.09,2.3-.52.63-1.29,1.14-2.31,1.53l1.5,7h-3.08l-1.18-6.55h-1.74l-1.53,6.55h-2.91Z"/><polygon class="uuid-80bd710e-3174-47eb-8695-df985f94b3f9" points="91.99 202.26 95.56 186.93 104.23 186.93 103.75 189 97.99 189 96.91 193.65 101.92 193.65 101.44 195.72 96.42 195.72 94.89 202.26 91.99 202.26 91.99 202.26"/><path class="uuid-80bd710e-3174-47eb-8695-df985f94b3f9" d="m106.53,202.26l3.58-15.33h4.25c.93,0,1.7.11,2.31.32.61.22,1.08.5,1.41.86.33.36.54.77.61,1.24.07.47.05.95-.07,1.45l-.13.56c-.1.42-.22.77-.37,1.06-.15.29-.34.54-.56.75-.42.4-.99.75-1.72,1.03.63.24,1.05.6,1.26,1.08.21.47.22,1.12.03,1.94l-.2.86c-.31,1.35-.99,2.38-2.02,3.1-1.03.72-2.5,1.08-4.4,1.08h-3.96Zm4.57-7.11l-1.15,4.91h1.25c.59,0,1.07-.06,1.43-.19.36-.13.66-.31.88-.54.22-.23.39-.5.5-.82.11-.32.21-.66.3-1.03.09-.39.14-.72.15-1.01,0-.29-.05-.53-.17-.73-.14-.2-.37-.35-.67-.44-.3-.09-.72-.14-1.25-.14h-1.28Zm1.44-6.16l-.99,4.22h1.31c.97,0,1.66-.18,2.08-.55.42-.37.71-.9.87-1.6.16-.69.1-1.21-.19-1.55-.29-.34-.92-.52-1.89-.52h-1.2Z"/><path class="uuid-80bd710e-3174-47eb-8695-df985f94b3f9" d="m129.79,196.9l-.13-5.56h-.06l-2.72,5.56h2.91Zm-8.44,5.36l8.11-15.33h2.42l.95,15.33h-2.91l-.09-3.29h-3.96l-1.62,3.29h-2.91Z"/><polygon class="uuid-80bd710e-3174-47eb-8695-df985f94b3f9" points="138.26 202.26 141.84 186.93 144.75 186.93 141.68 200.07 147.44 200.07 146.93 202.26 138.26 202.26 138.26 202.26"/><polygon class="uuid-80bd710e-3174-47eb-8695-df985f94b3f9" points="152.8 202.26 156.38 186.93 159.29 186.93 156.22 200.07 161.98 200.07 161.47 202.26 152.8 202.26 152.8 202.26"/><polygon class="uuid-80bd710e-3174-47eb-8695-df985f94b3f9" points="176.64 202.26 180.21 186.93 183.12 186.93 180.06 200.07 185.82 200.07 185.3 202.26 176.64 202.26 176.64 202.26"/><polygon class="uuid-80bd710e-3174-47eb-8695-df985f94b3f9" points="191.26 202.26 194.84 186.93 197.75 186.93 194.17 202.26 191.26 202.26 191.26 202.26"/><path class="uuid-80bd710e-3174-47eb-8695-df985f94b3f9" d="m212.94,191.35h-2.91l.12-.5c.12-.5.06-.94-.17-1.3-.23-.37-.71-.55-1.45-.55-.4,0-.74.06-1.01.17-.27.11-.51.26-.7.43-.2.19-.35.4-.46.64-.11.24-.2.48-.26.74-.07.3-.11.55-.13.75-.02.2.01.38.09.54.08.16.21.29.4.41.19.11.46.23.82.34l2.07.67c.6.19,1.07.41,1.41.66.34.25.59.54.74.87.13.34.18.74.15,1.17-.03.44-.1.94-.24,1.5-.15.65-.38,1.25-.68,1.8-.3.55-.69,1.02-1.16,1.41-.49.4-1.09.72-1.79.95-.7.23-1.51.34-2.45.34-.7,0-1.34-.09-1.9-.28-.57-.19-1.03-.44-1.39-.78-.36-.33-.62-.71-.77-1.15-.15-.44-.17-.92-.05-1.43l.19-.82h2.91l-.16.69c-.09.4-.02.76.22,1.09.24.32.73.48,1.47.48.49,0,.89-.05,1.19-.16.3-.11.55-.26.75-.46.2-.2.35-.44.44-.72.09-.28.18-.59.26-.94.09-.4.15-.73.17-.99.02-.26,0-.47-.08-.62-.1-.16-.24-.29-.44-.39-.2-.1-.46-.21-.79-.32l-1.93-.65c-1.16-.39-1.89-.9-2.16-1.54-.28-.64-.31-1.44-.08-2.4.13-.57.37-1.12.7-1.64.33-.52.75-.96,1.25-1.33.49-.37,1.06-.67,1.73-.89.67-.22,1.43-.33,2.29-.33.72,0,1.36.1,1.91.3.55.2,1.01.47,1.37.8.71.69.97,1.48.76,2.37l-.25,1.08h0Z"/><path class="uuid-80bd710e-3174-47eb-8695-df985f94b3f9" d="m216.55,202.26l3.58-15.33h4.25c.93,0,1.7.11,2.3.32.61.22,1.08.5,1.41.86.33.36.54.77.61,1.24.07.47.05.95-.07,1.45l-.13.56c-.1.42-.22.77-.37,1.06-.15.29-.34.54-.56.75-.42.4-.99.75-1.72,1.03.63.24,1.05.6,1.26,1.08.21.47.22,1.12.03,1.94l-.2.86c-.31,1.35-.99,2.38-2.02,3.1-1.03.72-2.5,1.08-4.4,1.08h-3.96Zm4.57-7.11l-1.15,4.91h1.25c.59,0,1.07-.06,1.43-.19.36-.13.66-.31.88-.54.23-.23.39-.5.51-.82.11-.32.21-.66.3-1.03.09-.39.14-.72.15-1.01,0-.29-.05-.53-.17-.73-.14-.2-.37-.35-.67-.44-.3-.09-.72-.14-1.25-.14h-1.28Zm1.44-6.16l-.99,4.22h1.31c.97,0,1.66-.18,2.08-.55.42-.37.71-.9.87-1.6.16-.69.1-1.21-.19-1.55-.29-.34-.92-.52-1.89-.52h-1.2Z"/><path class="uuid-80bd710e-3174-47eb-8695-df985f94b3f9" d="m235.25,190.55c.14-.62.41-1.16.81-1.64.4-.47.87-.87,1.42-1.18.53-.3,1.1-.53,1.71-.69.62-.16,1.22-.24,1.81-.24s1.15.08,1.7.24c.54.16,1.02.39,1.42.69.38.32.66.71.84,1.18s.19,1.02.05,1.64l-1.89,8.1c-.15.65-.42,1.2-.82,1.66-.39.46-.85.84-1.38,1.14-.55.32-1.13.55-1.75.71-.62.16-1.22.24-1.81.24s-1.16-.08-1.7-.24c-.54-.16-1.01-.39-1.39-.71-.41-.3-.7-.68-.87-1.14-.18-.46-.19-1.01-.04-1.66l1.89-8.1h0Zm1.02,8.1c-.12.53-.02.92.31,1.17.33.25.76.38,1.29.38s1.02-.13,1.47-.38c.45-.25.73-.64.86-1.17l1.89-8.1c.12-.53.02-.92-.31-1.17-.33-.25-.76-.38-1.29-.38s-1.02.13-1.47.38c-.45.25-.73.64-.86,1.17l-1.89,8.1h0Z"/><path class="uuid-80bd710e-3174-47eb-8695-df985f94b3f9" d="m255.95,196.9l-.13-5.56h-.06l-2.72,5.56h2.91Zm-8.44,5.36l8.11-15.33h2.42l.95,15.33h-2.91l-.09-3.29h-3.96l-1.62,3.29h-2.91Z"/></g><g><g><path class="uuid-260d2143-640d-4157-bebe-506b7f265db1" d="m64.79,142.09c2.12,4.63,3.13,9.67,4.55,14.51,1.13,3.76,2.16,7.52,3.2,11.28.62,2.42,1.04,4.9,1.67,7.25.3,1.07,1.02,1.55,2.6,1.55h26.24c.56,0,1.17-.2,1.76-.34.05-1.75-.35-3.16-.98-4.77-.63-1.61-.59-3.69-1.01-5.37-.72-2.75-1.66-5.37-2.29-8.13-.59-2.55-.97-5.17-1.56-7.72-.35-1.61-1-3.16-1.35-4.77-1.02-4.57-1.66-9.2-2.69-13.77-.38-1.88-3.49-12.36-3.28-13.23.15-.6.65-1.14,1.23-1.61,7.21-5.91,14.84-11.62,22.06-17.53,1.63-1.34,1.62-1.68,3.7-2.96.33-.2.51-.94.57-1.21-3.3-.6-22.09-.6-26.84-.6-2.05,0-3.34.34-4.92,1.48-3.85,2.82-7.63,5.71-11.41,8.6-4.12,3.16-8.05,7.05-12.88,9.67-.22.13-1.17.2-1.46.27,1.1-6.78,3.11-13.5,4.49-20.28h-28.29l-19.95,81.66c1.1.07,2.11.13,3.22.13h22.05c1.95,0,3.12.2,3.53-1.48l2.44-10.01c1.05-4.3,2.01-8.6,3.06-12.89.23-.94.55-1.48,1.47-2.22,3.34-2.62,6.53-5.78,10.73-7.72l.32.2h0Z"/><path class="uuid-260d2143-640d-4157-bebe-506b7f265db1" d="m152.62,158.87c-2.51,0-4.96-.27-7.47-.27.7-7.05,2.7-14.1,4.33-21.15.97-3.96,1.84-7.92,2.81-11.89,1.95-7.99,4-15.98,5.76-23.97.41-1.68.82-3.36.95-5.04.16-1.41-.32-1.75-2.27-1.75h-25.68c-.65,0-1.44.2-2.04.34l-1.23,5.04c-1.64,6.72-3.02,13.5-4.66,20.21-1.85,7.59-3.99,15.18-5.84,22.76l-7.63,31.23c-.31,1.28-.55,1.88,1.49,1.88,2.7,0,5.54-.2,8.33-.2,18.15,0,36.3.34,54.44.34h2.51c.26-.67.62-1.41.79-2.08,1.13-4.63,2.22-9.47,2.98-14.1.2-1.21.13-1.68-1.73-1.68-4.75,0-9.51.07-14.35.07-3.82,0-7.7.27-11.51.27h0Z"/><path class="uuid-260d2143-640d-4157-bebe-506b7f265db1" d="m202.41,95.21c2.3,5.04,4.1,10.27,7.01,15.11.94,1.48,1.48,3.09,2.22,4.63,2.67,5.44,5.64,10.81,8,16.39.38.74.44,1.61.23,2.48-.05.2-.19.4-.24.6-2.01,4.43-11.02,12.36-15.14,16.65-3,3.16-23.8,25.05-23.8,25.05l-.13.54h30.05c.33-.2.66-.4.91-.67,6.83-6.25,12.3-13.03,18.89-19.41,1.12.74,1.97,1.48,2.04,2.69,0,.4-.01.81.19,1.14,1.71,3.29,3.47,6.38,4.77,9.8.84,2.28,1.99,4.43,2.93,6.65h32.2c-1.53-4.77-4.03-9.4-6.16-14.04-1.64-3.56-3.08-7.18-4.73-10.74-2.61-5.71-5.53-11.28-8.04-16.99-.24-.54-.47-1.14-.3-1.81.15-.6.63-1.07,1.14-1.61,4.46-4.16,7.83-8.8,11.96-13.16,1.62-1.68,3.41-3.29,4.94-4.97,4.33-4.77,8.67-9.6,12.76-14.5,1.04-1.21,1.63-2.48,2.5-3.76-7.52-.47-15.35-.4-22.98-.4-1.86,0-3.92.07-5.84.67-2.85,2.89-5.78,5.78-8.37,8.73-1.81,2.08-4.72,3.69-5.93,5.98l-.94.4c-2.13-4.23-4.56-8.39-5.97-12.89-.58-1.81-1.8-2.55-4.59-2.55h-29.59Zm50.32,31.7c.17.07.25.13.4.27-.22.13-.44.27-.75.4l-.23-.2.71-.6-.13.13h0Zm12.24,39.02l-.27-.4c.22-.13.34-.27.56-.4.23.2.38.34.52.54l-.81.27h0Zm-27.97-29.48c.12.27.24.54.25.87l-.5.13-.03-1.01.61-.2-.33.2h0Z"/><path id="uuid-4284eec5-7253-402a-8893-4680d0e4505a" class="uuid-e29973a2-903c-4431-bdfe-359521b334bb" d="m64.79,142.09c2.12,4.63,3.13,9.67,4.55,14.51,1.13,3.76,2.16,7.52,3.2,11.28.62,2.42,1.04,4.9,1.67,7.25.3,1.07,1.02,1.55,2.6,1.55h26.24c.56,0,1.17-.2,1.76-.34.05-1.75-.35-3.16-.98-4.77-.63-1.61-.59-3.69-1.01-5.37-.72-2.75-1.66-5.37-2.29-8.13-.59-2.55-.97-5.17-1.56-7.72-.35-1.61-1-3.16-1.35-4.77-1.02-4.57-1.66-9.2-2.69-13.77-.38-1.88-3.49-12.36-3.28-13.23.15-.6.65-1.14,1.23-1.61,7.21-5.91,14.84-11.62,22.06-17.53,1.63-1.34,1.62-1.68,3.7-2.96.33-.2.51-.94.57-1.21-3.3-.6-22.09-.6-26.84-.6-2.05,0-3.34.34-4.92,1.48-3.85,2.82-7.63,5.71-11.41,8.6-4.12,3.16-8.05,7.05-12.88,9.67-.22.13-1.17.2-1.46.27,1.1-6.78,3.11-13.5,4.49-20.28h-28.29l-19.95,81.66c1.1.07,2.11.13,3.22.13h22.05c1.95,0,3.12.2,3.53-1.48l2.44-10.01c1.05-4.3,2.01-8.6,3.06-12.89.23-.94.55-1.48,1.47-2.22,3.34-2.62,6.53-5.78,10.73-7.72l.32.2h0Zm87.83,16.79c-2.51,0-4.96-.27-7.47-.27.7-7.05,2.7-14.1,4.33-21.15.97-3.96,1.84-7.92,2.81-11.89,1.95-7.99,4-15.98,5.76-23.97.41-1.68.82-3.36.95-5.04.16-1.41-.32-1.75-2.27-1.75h-25.68c-.65,0-1.44.2-2.04.34l-1.23,5.04c-1.64,6.72-3.02,13.5-4.66,20.21-1.85,7.59-3.99,15.18-5.84,22.76l-7.63,31.23c-.31,1.28-.55,1.88,1.49,1.88,2.7,0,5.54-.2,8.33-.2,18.15,0,36.3.34,54.44.34h2.51c.26-.67.62-1.41.79-2.08,1.13-4.63,2.22-9.47,2.98-14.1.2-1.21.13-1.68-1.73-1.68-4.75,0-9.51.07-14.35.07-3.82,0-7.7.27-11.51.27h0Zm49.8-63.66c2.3,5.04,4.1,10.27,7.01,15.11.94,1.48,1.48,3.09,2.22,4.63,2.67,5.44,5.64,10.81,8,16.39.38.74.44,1.61.23,2.48-.05.2-.19.4-.24.6-2.01,4.43-11.02,12.36-15.14,16.65-3,3.16-23.8,25.05-23.8,25.05l-.13.54h30.05c.33-.2.66-.4.91-.67,6.83-6.25,12.3-13.03,18.89-19.41,1.12.74,1.97,1.48,2.04,2.69,0,.4-.01.81.19,1.14,1.71,3.29,3.47,6.38,4.77,9.8.84,2.28,1.99,4.43,2.93,6.65h32.2c-1.53-4.77-4.03-9.4-6.16-14.04-1.64-3.56-3.08-7.18-4.73-10.74-2.61-5.71-5.53-11.28-8.04-16.99-.24-.54-.47-1.14-.3-1.81.15-.6.63-1.07,1.14-1.61,4.46-4.16,7.83-8.8,11.96-13.16,1.62-1.68,3.41-3.29,4.94-4.97,4.33-4.77,8.67-9.6,12.76-14.5,1.04-1.21,1.63-2.48,2.5-3.76-7.52-.47-15.35-.4-22.98-.4-1.86,0-3.92.07-5.84.67-2.85,2.89-5.78,5.78-8.37,8.73-1.81,2.08-4.72,3.69-5.93,5.98l-.94.4c-2.13-4.23-4.56-8.39-5.97-12.89-.58-1.81-1.8-2.55-4.59-2.55h-29.59Zm50.32,31.7c.17.07.25.13.4.27-.22.13-.44.27-.75.4l-.23-.2.71-.6-.13.13h0Zm12.24,39.02l-.27-.4c.22-.13.34-.27.56-.4.23.2.38.34.52.54l-.81.27h0Zm-27.97-29.48c.12.27.24.54.25.87l-.5.13-.03-1.01.61-.2-.33.2h0Z"/></g><g><g class="uuid-3e3fdffc-e1d1-457e-964e-31bd48dd0c80"><g><path d="m194.88,120.46c-2.42.86-4.59,1.72-6.83,2.38-1.29.38-2.56.7-3.77,1.32-1.21.62-2.66.86-3.98,1.34-.93.34-1.87.71-2.67,1.23-1.8,1.17-3.63,2.21-5.95,2.25-.36,0-.72.25-1.07.41-.24.11-.46.39-.68.39-1.19,0-2.4.04-3.55-.17-1.18-.21-2.29-.69-3.21-.98.33.44.84,1.12,1.49,1.99-.79.22-1.44.41-2.1.58-3.19.8-6.38,1.6-9.58,2.37-1.25.3-2.52.49-3.78.76-.44.1-.92.2-1.29.43-1.18.74-2.46.73-3.82.67-1.38-.06-2.8-.06-4.15.16-.84.14-1.6.74-2.38,1.15-.67.35-1.28.83-2,1.09-2.96,1.06-5.96,2.03-8.92,3.08-.53.19-.96.62-1.49.83-.87.34-1.76.63-2.67.88-1.18.32-2.38.57-3.56.87-1.27.32-2.54.64-3.79,1.01-.55.16-1.09.37-1.57.65-.78.45-1.54.69-2.52.59-.7-.07-1.61.08-2.15.45-1.74,1.19-3.66,2.01-5.76,2.39-2.82.52-5.27,1.77-7.7,3.02-1.44.74-2.81,1.2-4.46,1.07-1.95-.15-3.79.31-5.6.95-3.4,1.2-6.82,2.36-10.23,3.52-1.36.46-2.71.95-4.1,1.32-.56.15-1.25.16-1.81,0-.94-.26-1.69-.02-2.46.39-1.28.68-2.56,1.33-4.1,1.48-.39.04-.72.46-1.11.65-.4.2-.93.55-1.25.45-1.55-.52-2.92-.04-4.32.4-.76.24-1.52.49-2.3.67-.27.06-.59-.08-.89-.13.08-.26.09-.57.26-.77.36-.42.77-.81,1.22-1.15.68-.5.51-.88-.11-1.24-.4-.23-.85-.39-.63-.95.22-.56.67-.79,1.29-.76.96.04,1.91.16,2.86.13,1.16-.03,2.32-.28,3.48-.25,1.57.05,3.12.31,4.69.41.58.04,1.18-.16,1.78-.22.65-.06,1.33-.23,1.94-.1.88.19,1.58.12,2.36-.31.94-.51,1.99-.88,3.02-1.24.99-.35,1.81-.81,2.24-1.74.75-1.63,2.23-2.44,4.05-2.87.68-.16,1.21-.1,1.62.45.42.58.99.7,1.7.42.64-.25,1.27-.6,1.97-.01.14.12.6,0,.88-.09,1.58-.5,3.12-1.1,4.28-2.25,2.17-2.14,4.99-3,8.08-3.33.12-.01.23-.07.33-.1-.29-.42-.56-.82-.92-1.35.45-.04.68-.07.93-.09,0-.11,0-.19,0-.26-.01-.24-.14-.61-.01-.71.83-.67,1.29-1.72,2.52-2,.84-.19,1.64-.48,2.44-.9-.59.08-1.22.05-1.75.25-1.18.43-2.26-.07-3.37-.19-.62-.07-.65-.98.03-1.5.42-.33,1-.53,1.55-.68.91-.25,1.88-.36,2.78-.65.58-.19,1.08-.6,1.61-.91.44-.25.88-.5,1.34-.72.78-.37,1.62-.66,2.34-1.1.78-.47,1.5-.97,2.5-.98.26,0,.59-.09.78-.24,1.65-1.34,3.85-1.58,5.79-2.34,1.32-.52,2.6-1.14,3.9-1.69.24-.1.55-.19.79-.15.78.14,1.33-.14,1.95-.54.63-.41,1.41-.64,2.15-.89.75-.25,1.55-.39,2.29-.65,1.41-.49,2.81-1,4.19-1.56,1.4-.57,2.76-1.21,4.15-1.8.47-.2.96-.36,1.46-.5,1.85-.5,3.71-.99,5.56-1.48,1.01-.27,2.01-.56,3.03-.77.37-.08.84-.06,1.17.1.82.38,1.54.23,2.39.01,1.14-.3,2.36-.34,3.55-.48,1.49-.19,2.98-.4,4.48-.54.82-.08,1.66-.08,2.48-.01,1.98.17,3.58-.38,4.81-1.83.68-.8,1.54-1.33,2.78-1.19.5.06,1.03-.12,1.55-.2.15-.02.32-.15.44-.12,1.11.34,2,.08,2.65-.87.21.24.32.37.44.49.55.6.9.58,1.14-.14.26-.77.74-1.04,1.63-1.04.62,0,1.28-.21,1.86-.43,1.17-.45,2.28-1.02,3.44-1.47,1.28-.49,2.55-.05,3.82.14.54.08,1.14.05,1.69-.05,1.43-.26,2.88-.47,4.24-.91,1.05-.34,2-.96,2.93-1.54.22-.14.31-.69.18-.94-.13-.25-.57-.48-.91-.53-.65-.09-1.33-.04-2.03-.04.34-1.34,1.15-1.68,2.25-1.02.49.3.89.3,1.36,0,.44-.29.9-.69,1.41-.06.03.04.12.06.17.05,1.67-.35,3.48.61,5.09-.42.27-.17.64-.2.96-.32.6-.23,1.07-.24,1.54.31.19.23.79.31,1.16.24.4-.07.79-.33,1.1-.59.78-.65,1.51-1.17,2.71-.73.66.24,1.23-.22,1.42-.8.23-.71.66-.79,1.39-.68,1.03.14,2.04.04,2.87-.67.2-.17.65-.38.8-.3.91.5,1.82.27,2.82.04-.03.3-.08.48-.07.66.02.31.07.61.11.92.34-.08.68-.16,1.02-.23.43-.1.86-.24,1.3-.28,1.24-.1,2.46-.32,3.13-1.36.33-.52.39-1.22.45-1.84.11-1.03.72-1.62,1.77-1.9.81-.22,1.28-.71,1.59-1.4.14-.32.45-.57.74-.94-.75-.5-1.66-1.18-2.67-1.71-.28-.15-.91.1-1.29.3-.81.44-1.43.22-1.74-.46-.27-.59-.64-.68-1.22-.56-.06.01-.13.01-.18,0-.34-.1-.68-.2-1.01-.33-.05-.02-.02-.34.02-.35.33-.06.68-.08,1.02-.11.26-.02.63.06.76-.06,1.24-1.16,2.95-1.37,4.52-1.83,1.47-.43,3.02-.64,4.5-1.04,2.31-.62,4.62-1.27,6.9-2,3.19-1.02,6.36-2.03,9.79-2.23.81-.05,1.59-.41,2.39-.64.76-.22,1.51-.53,2.29-.64,1.96-.28,3.94-.42,5.9-.71.96-.14,1.89-.45,2.8-.76,1.29-.45,2.5-.75,3.95-.32,1.46.44,2.92.74,4.23,1.58.77.5,1.93.5,2.91.75,1.1.28,2.17.73,3.29.87,1.18.14,2.32.11,3.5.54,1.06.38,2.41.34,3.57.17.65-.1,1.31-.76,1.75-1.3.36-.44.41-1.09.56-1.66.24-.89.7-1.59,1.76-1.87.8-.22,1.63-.41,2.35-.78,1.62-.82,3.2-1.72,5.11-1.88.26-.02.62-.11.77.01.68.55,1.41.43,2.19.31,1.57-.25,1.58-.23,2.99,1-1.57-.22-2.55.69-3.67,1.27-.91.47-1.79.64-2.89.51-2.08-.26-4.1.06-5.65,1.49-.34.31-.54.8-.66,1.24-.15.54-.4.79-1.04.87-.52.07-1.19.25-1.46.59-1.89,2.39-4.7,3.35-7.61,4.2-1.47.43-2.96.81-4.41,1.31-1,.34-1.92.84-2.96,1.2.31-.29.63-.57.93-.86.11-.1.22-.2.29-.32.88-1.39,1.83-2.71,3.26-3.73.68-.49.53-1.11-.26-1.51-.38-.19-.88-.29-1.32-.27-1.61.07-3.22.15-4.81.35-.6.07-1.22.37-1.72.7-1.54,1.05-1.98,1.1-3.64.22-.15-.08-.63.04-.64.12-.23,1.1-1.29,1.28-2.16,1.71-.98.49-1.86.91-2.97.17-.24-.16-1.21.12-1.38.41-.74,1.31-2.01,1.65-3.4,1.57-1.11-.07-1.54.22-1.47,1.19.01.15-.09.31-.17.56-.45-.24-.83-.44-1.21-.65-.65-.35-1.21-.23-1.38.42-.34,1.31-1.38,1.9-2.65,2.32-1.25.41-2.49.86-3.76,1.23-1.29.38-2.4.89-2.92,2.11-.06.14-.22.25-.29.33-.59-.29-1.09-.64-1.66-.77-.38-.09-.86.13-1.29.21.12.31.24.63.36.94.05.09.09.17.14.26-.27-.04-.54-.11-.8-.1-.63.03-1.3.02-1.04.93.04.15-.5.62-.77.62-1.46-.02-2.39.67-3.06,1.71-.42.64-.98.92-1.79,1.02-.71.09-1.39.37-2.09.56-.16.04-.33.04-.5.03-.24,0-.64-.12-.71-.03-.82,1.12-2.34.38-3.31,1.04-.95.65-1.89,1.34-2.8,2.03-.42.32-.79.49-1.41.39-.41-.07-1.05.14-1.34.43-.69.69-1.48,1.09-2.47,1.36-2.49.67-4.94,1.47-7.43,2.16-1.21.34-1.55,1.28-2.08,2.11-.19.31-.39.66-.7.85-.94.57-1.88,1.18-2.92,1.55-.51.19-1.28,0-1.85-.21-.69-.24-1.19-.11-1.54.38-.72,1-2.01.67-2.98,1.1-.17.08-.56-.26-.62-.29Z"/><path d="m153.43,91.39c-.09.23-.2.52-.3.8.09.08.15.15.18.14,1.38-.24,2.82-.33,4.11-.77,1.02-.35,1.83-1.18,2.79-1.71.85-.47,1.75-.92,2.69-1.21,1.64-.5,3.32-.89,4.99-1.3.53-.13,1.07-.19,1.59-.28-.89-.83-2.06-1.22-3.33-1.14-.85.05-1.8.42-2.35-.63-.08-.16-.69-.09-1.05-.15-.38-.07-.76-.16-1.14-.24,0-.09,0-.19,0-.28.37,0,.74,0,1.11.02.33.02.69.16,1,.1,4.3-.84,8.69-.68,13.03-.98,3.88-.27,7.74-.87,11.57-1.48,3.26-.52,6.49-1.2,9.7-1.92,1.21-.27,2.32-.92,3.5-1.33,3.81-1.34,7.64-2.61,11.44-3.97,2.93-1.05,5.77-2.34,8.76-3.25,2.32-.71,4.81-.99,7.22-1.47.91-.18,1.82-.37,2.71-.6,3.31-.85,6.6-1.75,9.91-2.59,2.2-.56,4.43-1.03,6.65-1.54.19-.04.39-.04.61.08-5.51,1.62-11.03,3.24-16.54,4.86-.02-.04-.04-.08-.07-.12.5-.22,1.01-.43,1.51-.65-.02-.06-.05-.11-.07-.17-1.8.57-3.63,1.08-5.41,1.72-3.94,1.42-7.78,3.06-11.78,4.32-3.17,1-5.94,2.69-9.01,3.82-.99.37-2.06.58-3.03,1-1.14.49-2.19,1.15-3.31,1.67-.99.46-2.04.8-3.04,1.24-.9.4-1.77.87-2.65,1.3-.21.11-.43.33-.63.31-1.33-.12-2.25.61-3.29,1.16-2.1,1.13-4.43,1.76-6.83,2.04-2.4.28-4.82.39-7.23.57.05.14.1.29.15.43-.3-.15-.61-.43-.91-.42-.95.02-2.05-.41-2.71.69-.09.15-.63.11-.96.1-.97-.03-1.88.04-2.71.64-.35.25-.93.35-1.4.34-1.7-.03-3.2.49-4.69,1.16-.72.32-1.57.44-2.36.64-1.33.33-2.8.14-4.03.86-.1.06-.24.1-.35.08-1.68-.29-2.62.9-3.85,1.51-.42.21-.94.25-1.4.42-.37.14-.72.33-1.06.52-.48.27-.91.65-1.42.84-1.71.65-3.45,1.24-5.18,1.85-.67.23-.9.72-.98,1.31-.1.75-.29,1.44-1.26,1.65-.11.02-.24.11-.29.2-.56.93-1.42.81-2.33.57-.52-.14-.93-.11-1.2.45-.27.56-1.98,1.02-2.65.83-.22-.06-.54-.05-.72.05-1.93,1.07-3.89,2.06-6.12,2.55-.49.11-.92.43-1.39.63-1.38.6-2.79,1.17-4.16,1.8-.87.4-1.75.8-2.51,1.34-1.47,1.05-2.95,2.03-4.88,2.24-.15.02-.35,0-.45.09-.77.66-1.73.69-2.7.92-1.09.25-1.99-.13-2.98-.11-.15,0-.3-.03-.75-.08.51.41.81.66,1.35,1.08-.99.39-1.83.73-2.68,1.04-2.26.84-4.53,1.68-6.81,2.48-.85.3-1.76.47-2.64.7-.09.02-.2.01-.27.06-1.88,1.31-4.14.57-6.18.96-.81.15-1.56.56-2.33.85-.64.24-1.27.53-1.94.73-3.08.93-6.16,1.85-9.25,2.74-1.24.36-2.52.59-3.75.95-1.18.34-2.34.73-3.48,1.17-2.59.99-5.08,2.25-7.75,2.99-4.25,1.18-7.68,3.68-11.58,5.4-4.77,2.1-9.37,4.51-14.09,6.72-1.45.68-3.06,1.08-4.53,1.74-4.51,2.03-8.98,4.1-13.46,6.19-3.16,1.47-6.2,3.17-9.46,4.42-3.06,1.16-5.87,2.72-8.87,3.95-.41.17-.75.48-1.13.71-.3.19-.61.47-.94.51-2.23.22-4.03,1.38-6.01,2.13-.3.11-.64.15-.96.22-.06-.09-.12-.18-.18-.28.66-.57,1.32-1.14,2.05-1.77-.42-.18-.77-.33-1.41-.61.61-.32,1.01-.57,1.44-.74.24-.1.55-.06.82-.12,3.31-.78,6.62-1.56,9.93-2.37.53-.13,1.02-.39,1.54-.58.85-.32,1.73-.58,2.56-.95,1.3-.57,2.56-1.23,3.86-1.8,2.37-1.04,4.52-2.35,6.64-3.76,1.5-1,3.19-2.04,4.96-2.36,1.91-.35,3.47-1.27,5.24-1.79,1.59-.47,3.07-1.31,4.52-2.09,4.11-2.2,8.22-4.41,12.26-6.71,1.9-1.08,3.65-2.37,5.47-3.57.11-.07.18-.19.45-.48-1.02.3-1.79.53-2.73.8.54-1.13,1.43-1.71,2.39-2.2,1.48-.75,3.02-1.41,4.47-2.2,1.18-.64,2.26-1.43,3.43-2.11,1.63-.95,3.22-1.98,4.96-2.74,3.39-1.48,6.84-2.83,10.3-4.17,2.05-.79,4.2-1.36,6.22-2.2,2.49-1.04,5.19-1.62,7.48-3.1.91-.59,2.04-.88,3.07-1.32,1.14-.49,2.24-1.06,3.41-1.49.6-.22,1.31-.2,1.96-.32.38-.07.77-.15,1.13-.28,1.09-.38,2.16-.79,3.24-1.19,1.12-.41,2.23-.83,3.36-1.2.63-.21,1.29-.37,1.96-.47,1.55-.25,2.86-.76,3.77-2.03.65-.91,1.49-1.69,2.88-1.74.84-.03,1.68-.2,2.48-.43.43-.12.77-.5,1.21-.81l.9.6c.13-.09.29-.14.3-.21.22-1.09,1.08-1.23,2.13-1.44.99-.19,1.93-.75,2.8-1.26,1.16-.68,2.36-.64,3.65-.48.64.08,1.32-.02,1.96-.14.85-.16,1.71-.34,2.5-.63.76-.28,1.48-.67,2.13-1.11.24-.16.46-.71.34-.89-.18-.27-.66-.45-1.04-.52-.47-.09-.97-.02-1.55-.02.59-1.26.62-1.27,1.81-.82.17.06.46.16.52.1.69-.71,1.61-.13,2.37-.37.14-.04.33-.07.45-.01.92.47,1.74.08,2.56-.22.78-.29,1.51-.72,2.37,0,.2.17,1.06-.02,1.38-.28.68-.55,1.28-.97,2.3-.74.31.07.76-.4,1.15-.6.33-.17.67-.46,1-.45.99.03,1.91-.05,2.75-.56.17-.11.4-.21.6-.2.82.06,1.63.17,2.5.26Z"/><path d="m156.21,191.83c-2.02.43-3.82.73-5.55,1.21-.59.16-.99.84-1.56,1.14-.91.48-1.86.96-2.87,1.25-1.59.46-3.22.77-4.84,1.13-.58.13-1.18.21-1.88.34,1.14.83,2.27,1.38,3.74,1.17.75-.11,1.57-.24,1.94.68.04.11.43.12.66.16.53.09,1.06.17,1.58.25,0,.09-.01.19-.02.28-.33.02-.66.04-.99.04-.65,0-1.31-.05-1.96,0-2.22.13-4.44.33-6.66.41-2.44.09-4.9-.08-7.33.12-3.36.27-6.7.72-10.04,1.21-3.27.48-6.51,1.09-9.76,1.67-.57.1-1.12.33-1.67.51-4.71,1.55-9.43,3.08-14.13,4.66-2.67.9-5.26,2.02-7.98,2.76-2.35.64-4.84.86-7.26,1.31-1.61.3-3.2.65-4.79,1.02-2.58.59-5.15,1.25-7.74,1.82-2.4.53-4.81.98-7.28,1.29,5.46-1.46,10.92-2.92,16.39-4.38l.07.14c-.49.2-.98.41-1.47.61.03.05.05.11.08.16,2.37-.7,4.76-1.34,7.1-2.12,3.46-1.15,6.82-2.54,10.33-3.54,3.24-.92,6.07-2.59,9.21-3.64.95-.32,1.97-.49,2.89-.86,1.18-.48,2.28-1.12,3.44-1.63.97-.43,2.01-.74,2.99-1.15.94-.39,1.86-.84,2.79-1.26.19-.09.39-.28.56-.26,1.36.16,2.33-.56,3.41-1.11,2.19-1.11,4.62-1.59,7.08-1.91,2.15-.28,4.3-.54,6.45-.79.2-.02.46.09.62.22.57.46,2.82.39,3.32-.09.17-.16.45-.33.68-.33,1.14-.01,2.26.01,3.26-.67.35-.24.95-.26,1.43-.25,1.57.05,2.97-.41,4.38-.96.83-.32,1.76-.43,2.64-.66,1.3-.33,2.74-.07,3.97-.76.1-.06.25-.1.36-.07,1.68.37,2.62-.87,3.88-1.42.44-.19.95-.24,1.41-.4.35-.11.69-.27,1.01-.44.54-.28,1.04-.67,1.61-.88,1.73-.61,3.5-1.12,5.21-1.76.39-.15.83-.68.85-1.05.06-1.5,1.58-1.81,2.48-2.6.25-.22,1.06.02,1.59.12.51.1.86.08,1.18-.37.53-.74,1.83-1.04,2.78-.76.17.05.43.01.58-.07,2.04-1.13,4.17-2.06,6.53-2.52.35-.07.72-.22,1-.42,1.29-.93,2.8-1.38,4.34-1.82.89-.25,1.77-.67,2.49-1.2,1.52-1.11,3.1-2.02,5.11-2.17.18-.01.42-.04.52-.15.66-.66,1.53-.58,2.38-.76,1.08-.23,1.98.1,2.96.15.21,0,.41.05.86.11-.42-.42-.7-.7-1.16-1.16.96-.34,1.82-.65,2.68-.95,2.29-.78,4.58-1.57,6.88-2.32.83-.27,1.72-.41,2.57-.62.09-.02.2-.02.27-.06,1.84-1.17,3.95-.6,5.95-.75,1.06-.08,1.96-.31,2.81-.92.47-.34,1.18-.42,1.8-.59,3.08-.84,6.16-1.67,9.24-2.5.47-.13.94-.34,1.42-.4,3.66-.4,6.86-2.11,10.36-2.94.53-.13,1-.44,1.52-.63,1.31-.48,2.66-.89,3.94-1.43,1.48-.62,2.91-1.36,4.37-2.01,3.08-1.37,6.19-2.68,9.26-4.07,3.43-1.55,6.79-3.22,10.24-4.72,1.83-.8,3.84-1.28,5.69-2.06,4.41-1.85,8.77-3.78,13.14-5.7,3.12-1.37,6.12-2.99,9.35-4.09,3-1.01,5.72-2.51,8.66-3.59.42-.15.77-.45,1.16-.67.34-.19.67-.49,1.03-.53,2.25-.21,4.13-1.3,6.16-2.03.28-.1.6-.08.9-.12.05.08.09.17.14.25-.69.55-1.38,1.09-2.16,1.71.41.19.75.35,1.31.6-.42.27-.72.51-1.07.67-.24.11-.55.07-.82.13-3.52.75-7.09,1.36-10.54,2.32-3.2.89-6.29,2.13-9.21,3.64-1.44.75-2.82,1.59-4.27,2.33-1.96,1.01-3.85,2.3-5.97,2.82-1.77.44-3.41,1.1-5.11,1.63-1.69.52-3.3,1.28-4.86,2.06-4.08,2.03-8.15,4.09-12.17,6.23-1.99,1.06-3.83,2.34-5.74,3.52-.14.09-.25.23-.3.5.76-.2,1.52-.41,2.53-.67-.72,1.09-1.58,1.69-2.56,2.15-1.54.72-3.12,1.36-4.63,2.12-1.26.64-2.42,1.42-3.65,2.11-1.12.64-2.26,1.24-3.4,1.86-.26.14-.53.29-.81.4-3.38,1.29-6.75,2.6-10.15,3.86-1.24.46-2.49.89-3.8,1.21-2.25.55-4.39,1.45-6.55,2.27-1.48.56-2.9,1.22-4.36,1.82-1.04.42-2.1.8-3.14,1.22-1.16.46-2.28,1-3.46,1.41-.58.2-1.25.17-1.88.26-.39.06-.78.12-1.14.24-1.01.33-2,.71-3.01,1.05-1.24.42-2.48.84-3.73,1.22-.55.17-1.13.3-1.71.35-1.76.16-3.22.75-4.21,2.13-.64.89-1.49,1.44-2.73,1.49-.84.04-1.7.16-2.51.37-.46.12-.84.5-1.31.81-.24-.19-.54-.41-.83-.64-.4.48-.67,1.08-1.16,1.35-.52.28-1.28.16-1.87.37-.83.29-1.64.67-2.4,1.1-1.06.6-2.16.6-3.3.35-.84-.18-1.6-.22-2.43.11-.7.28-1.54.26-2.24.53-.84.32-1.61.77-2.37,1.23-.19.11-.35.53-.26.69.14.26.47.49.78.6.26.09.61-.03.91,0,.28.03.55.14.82.22-.08.2-.11.45-.27.58-.2.17-.61.4-.74.33-.76-.42-1.37-.5-2.19.02-.38.24-1.24.11-1.75-.11-1.12-.47-2.05-.08-3.02.27-.71.26-1.33.42-2.04-.14-.23-.18-1.08.02-1.45.28-.69.48-1.28.87-2.25.62-.31-.08-.96.26-1.15.57-.29.46-.59.47-1.1.49-.9.04-1.79.27-2.68.43-.24.04-.47.18-.69.16-.8-.07-1.59-.18-2.44-.29.09-.23.21-.52.45-1.09Z"/><path d="m188.26,150.32c.72-.02,1.61-.1,2.49-.05,1.25.07,1.63.38,1.78,1.28,1.85-1.41,3.99-1.62,6.3-1.49,1.26.07,2.58,0,3.46-1.11.13-.17.54-.14.75-.29.36-.26.66-.58.98-.88.27-.26.49-.63.82-.76,1.24-.46,2.5-.62,3.75.02.21.11.49.2.71.16,1.96-.32,4.08-.08,5.79-1.29.15-.1.31-.24.47-.26,2.26-.19,3.82-1.74,5.83-2.43,1.73-.59,3.41-1.29,5.13-1.88.38-.13.86-.02,1.29-.02-.14.3-.29.61-.43.91-.03.08-.05.16-.1.32.72.15,1.43.3,2.45.51-.52.26-.79.47-1.1.54-.97.2-1.96.29-2.91.54-.81.21-1.57.59-2.36.89-.31.12-.65.33-.94.3-1.98-.21-3.79.73-5.74.65-.2,0-.45.08-.59.2-1.42,1.16-3.26,1.26-4.98,1.66-2.85.67-5.71,1.3-8.51,2.1-1.05.3-1.94,1.03-2.9,1.57-.44.24-.86.67-1.32.71-2.78.25-5.31,1.21-7.87,2.11-.49.17-1.01.31-1.52.36-1.19.11-2.34.29-3.2,1.14-.08.08-.22.11-.33.14-1.9.56-3.8,1.13-5.71,1.69-.5.15-1.03.24-1.5.45-1.54.68-3.16,1.07-4.85,1.38-2.67.49-5.29,1.21-7.94,1.8-.59.13-1.23.13-1.83.25-1.57.31-3.13.63-4.69.98-3.09.68-6.17,1.41-9.27,2.07-2.9.61-5.8,1.22-8.72,1.72-2.53.44-4.98,1.03-7.43,1.76-2.6.77-5.36,1.12-8.01,1.75-1.64.39-3.24.94-4.83,1.48-2.42.83-4.79,1.79-7.24,2.56-1.13.36-1.87,1.17-2.89,1.62-.46.2-.96.35-1.39.58-.41.22-.82.48-1.12.81-1.04,1.15-2.44,1.45-3.98,1.53-.66.03-1.37.08-1.94.33-1.66.74-3.24,1.62-4.88,2.4-.5.24-1.1.31-1.64.5-.41.14-.8.34-1.19.53-.13.06-.23.22-.36.24-1.53.29-3.07.51-4.44,1.32-.78.46-1.68.77-2.56,1.08-.61.21-1.27.31-1.92.44-.51.11-1.04.15-1.54.29-.55.15-1.01.72-1.68.21-.07-.05-.33.11-.5.16-.26.07-.56.57-.77-.05-.36.18-.83.29-1.04.57-.34.43-.73.47-1.25.51-.76.06-1.51.21-2.24.41-1.28.34-2.53.75-3.8,1.11-.29.08-.66.18-.91.08-1.04-.39-1.72.01-2.3.81-.67-.53-1.22-.16-1.86.06-.85.29-1.77.39-2.66.6-.44.1-.95.16-1.27.4-1.17.86-2.53,1.04-3.96,1.08-.25,0-.57.08-.73.22-.79.73-1.86.8-2.84,1.12-1.96.65-3.84,1.49-5.74,2.27-.2.08-.33.3-.66.6,1.81-.04,3.41-.07,5-.1.02.05.03.11.05.16-.59.17-1.19.32-1.78.51-2.71.87-5.42,1.77-8.14,2.61-.67.21-1.39.27-2.09.39-.21.04-.45,0-.64.09-1.98.89-4.42.21-6.28,1.52-.58.41-1.17.82-1.8,1.17-1.01.57-2.08,1.05-3.09,1.64-1.03.6-2,1.26-2.99,1.91-.45.29-.88.6-1.35.92-.19-.82.29-1.26.88-1.65,1.02-.67,2.05-1.33,3.06-2.02.85-.58,1.67-1.18,2.52-1.77,1.85-1.28,4.21-1.55,6.26-2.46.49-.22,1.24.05,1.87.05.75,0,1.58.11,2.23-.13,1.02-.38,1.94-.98,2.87-1.54,1.61-.97,3.21-1.96,4.78-2.99,1.47-.97,2.87-2.02,4.34-2.99.56-.37,1.21-.67,1.86-.91,2.52-.93,5.07-1.8,7.59-2.73,4.33-1.6,8.66-3.18,12.94-4.87,2.6-1.03,5.11-2.27,7.67-3.39.93-.41,1.89-.75,2.95-1.06-.23.23-.53.42-.67.69-.53,1.01-1.46,1.62-2.43,2.25-.41.27-.6.81-.89,1.22.05.1.1.2.15.3.69-.09,1.37-.21,2.06-.26.52-.04,1.2-.19,1.56.04.88.56,1.63.38,2.42-.01.75-.37,1.48-.78,2.29-1.2-.12-.15-.25-.32-.48-.61.89-.51,1.77-1.01,2.65-1.53.44-.26.91-.49,1.29-.81.4-.34.75-.57,1.37-.48.3.04.67-.3,1-.49.5-.29.95-.7,1.49-.86.81-.24,1.4-.58,1.84-1.27.26-.41.87-.67,1.35-.95,1.36-.81,2.74-1.6,4.12-2.39.95-.54,1.91-1.09,2.9-1.58.28-.14.67-.09,1.01-.13.03.07.05.14.08.2-.75.44-1.49.88-2.24,1.32.04.11.09.21.13.32.71-.16,1.46-.24,2.13-.49,2.19-.84,4.33-1.79,6.54-2.59,1.57-.57,3.21-.98,4.83-1.44.94-.27,1.9-.5,2.86-.71.37-.08.78-.06,1.17-.08.18,0,.38.04.54,0,1.89-.54,3.77-1.12,5.68-1.63.7-.19,1.45-.23,2.19-.33,1.28-.18,2.59-.23,3.82-.56,2.96-.79,5.91-1.64,8.82-2.59,3.04-.99,6.01-2.15,9.03-3.19,1.35-.46,2.76-.8,4.13-1.2.74-.22,1.47-.43,2.19-.69,2.29-.84,4.56-1.7,6.85-2.54.34-.12.72-.15,1.08-.21.24-.04.52-.02.72-.13,2.2-1.26,4.78-1.7,7.12-2.68,1.35-.57,2.94-.66,4.36-1.13,1.59-.53,3.45-.3,4.85-1.41.23-.18.65-.26.96-.22.3.03.63.23.83.44.08.09-.09.45-.24.62-.44.49-.92.95-1.25,1.29Z"/></g></g><g class="uuid-fd868906-8910-43ea-b670-0e21bb1dc152"><g><path d="m194.88,120.46c-2.42.86-4.59,1.72-6.83,2.38-1.29.38-2.56.7-3.77,1.32-1.21.62-2.66.86-3.98,1.34-.93.34-1.87.71-2.67,1.23-1.8,1.17-3.63,2.21-5.95,2.25-.36,0-.72.25-1.07.41-.24.11-.46.39-.68.39-1.19,0-2.4.04-3.55-.17-1.18-.21-2.29-.69-3.21-.98.33.44.84,1.12,1.49,1.99-.79.22-1.44.41-2.1.58-3.19.8-6.38,1.6-9.58,2.37-1.25.3-2.52.49-3.78.76-.44.1-.92.2-1.29.43-1.18.74-2.46.73-3.82.67-1.38-.06-2.8-.06-4.15.16-.84.14-1.6.74-2.38,1.15-.67.35-1.28.83-2,1.09-2.96,1.06-5.96,2.03-8.92,3.08-.53.19-.96.62-1.49.83-.87.34-1.76.63-2.67.88-1.18.32-2.38.57-3.56.87-1.27.32-2.54.64-3.79,1.01-.55.16-1.09.37-1.57.65-.78.45-1.54.69-2.52.59-.7-.07-1.61.08-2.15.45-1.74,1.19-3.66,2.01-5.76,2.39-2.82.52-5.27,1.77-7.7,3.02-1.44.74-2.81,1.2-4.46,1.07-1.95-.15-3.79.31-5.6.95-3.4,1.2-6.82,2.36-10.23,3.52-1.36.46-2.71.95-4.1,1.32-.56.15-1.25.16-1.81,0-.94-.26-1.69-.02-2.46.39-1.28.68-2.56,1.33-4.1,1.48-.39.04-.72.46-1.11.65-.4.2-.93.55-1.25.45-1.55-.52-2.92-.04-4.32.4-.76.24-1.52.49-2.3.67-.27.06-.59-.08-.89-.13.08-.26.09-.57.26-.77.36-.42.77-.81,1.22-1.15.68-.5.51-.88-.11-1.24-.4-.23-.85-.39-.63-.95.22-.56.67-.79,1.29-.76.96.04,1.91.16,2.86.13,1.16-.03,2.32-.28,3.48-.25,1.57.05,3.12.31,4.69.41.58.04,1.18-.16,1.78-.22.65-.06,1.33-.23,1.94-.1.88.19,1.58.12,2.36-.31.94-.51,1.99-.88,3.02-1.24.99-.35,1.81-.81,2.24-1.74.75-1.63,2.23-2.44,4.05-2.87.68-.16,1.21-.1,1.62.45.42.58.99.7,1.7.42.64-.25,1.27-.6,1.97-.01.14.12.6,0,.88-.09,1.58-.5,3.12-1.1,4.28-2.25,2.17-2.14,4.99-3,8.08-3.33.12-.01.23-.07.33-.1-.29-.42-.56-.82-.92-1.35.45-.04.68-.07.93-.09,0-.11,0-.19,0-.26-.01-.24-.14-.61-.01-.71.83-.67,1.29-1.72,2.52-2,.84-.19,1.64-.48,2.44-.9-.59.08-1.22.05-1.75.25-1.18.43-2.26-.07-3.37-.19-.62-.07-.65-.98.03-1.5.42-.33,1-.53,1.55-.68.91-.25,1.88-.36,2.78-.65.58-.19,1.08-.6,1.61-.91.44-.25.88-.5,1.34-.72.78-.37,1.62-.66,2.34-1.1.78-.47,1.5-.97,2.5-.98.26,0,.59-.09.78-.24,1.65-1.34,3.85-1.58,5.79-2.34,1.32-.52,2.6-1.14,3.9-1.69.24-.1.55-.19.79-.15.78.14,1.33-.14,1.95-.54.63-.41,1.41-.64,2.15-.89.75-.25,1.55-.39,2.29-.65,1.41-.49,2.81-1,4.19-1.56,1.4-.57,2.76-1.21,4.15-1.8.47-.2.96-.36,1.46-.5,1.85-.5,3.71-.99,5.56-1.48,1.01-.27,2.01-.56,3.03-.77.37-.08.84-.06,1.17.1.82.38,1.54.23,2.39.01,1.14-.3,2.36-.34,3.55-.48,1.49-.19,2.98-.4,4.48-.54.82-.08,1.66-.08,2.48-.01,1.98.17,3.58-.38,4.81-1.83.68-.8,1.54-1.33,2.78-1.19.5.06,1.03-.12,1.55-.2.15-.02.32-.15.44-.12,1.11.34,2,.08,2.65-.87.21.24.32.37.44.49.55.6.9.58,1.14-.14.26-.77.74-1.04,1.63-1.04.62,0,1.28-.21,1.86-.43,1.17-.45,2.28-1.02,3.44-1.47,1.28-.49,2.55-.05,3.82.14.54.08,1.14.05,1.69-.05,1.43-.26,2.88-.47,4.24-.91,1.05-.34,2-.96,2.93-1.54.22-.14.31-.69.18-.94-.13-.25-.57-.48-.91-.53-.65-.09-1.33-.04-2.03-.04.34-1.34,1.15-1.68,2.25-1.02.49.3.89.3,1.36,0,.44-.29.9-.69,1.41-.06.03.04.12.06.17.05,1.67-.35,3.48.61,5.09-.42.27-.17.64-.2.96-.32.6-.23,1.07-.24,1.54.31.19.23.79.31,1.16.24.4-.07.79-.33,1.1-.59.78-.65,1.51-1.17,2.71-.73.66.24,1.23-.22,1.42-.8.23-.71.66-.79,1.39-.68,1.03.14,2.04.04,2.87-.67.2-.17.65-.38.8-.3.91.5,1.82.27,2.82.04-.03.3-.08.48-.07.66.02.31.07.61.11.92.34-.08.68-.16,1.02-.23.43-.1.86-.24,1.3-.28,1.24-.1,2.46-.32,3.13-1.36.33-.52.39-1.22.45-1.84.11-1.03.72-1.62,1.77-1.9.81-.22,1.28-.71,1.59-1.4.14-.32.45-.57.74-.94-.75-.5-1.66-1.18-2.67-1.71-.28-.15-.91.1-1.29.3-.81.44-1.43.22-1.74-.46-.27-.59-.64-.68-1.22-.56-.06.01-.13.01-.18,0-.34-.1-.68-.2-1.01-.33-.05-.02-.02-.34.02-.35.33-.06.68-.08,1.02-.11.26-.02.63.06.76-.06,1.24-1.16,2.95-1.37,4.52-1.83,1.47-.43,3.02-.64,4.5-1.04,2.31-.62,4.62-1.27,6.9-2,3.19-1.02,6.36-2.03,9.79-2.23.81-.05,1.59-.41,2.39-.64.76-.22,1.51-.53,2.29-.64,1.96-.28,3.94-.42,5.9-.71.96-.14,1.89-.45,2.8-.76,1.29-.45,2.5-.75,3.95-.32,1.46.44,2.92.74,4.23,1.58.77.5,1.93.5,2.91.75,1.1.28,2.17.73,3.29.87,1.18.14,2.32.11,3.5.54,1.06.38,2.41.34,3.57.17.65-.1,1.31-.76,1.75-1.3.36-.44.41-1.09.56-1.66.24-.89.7-1.59,1.76-1.87.8-.22,1.63-.41,2.35-.78,1.62-.82,3.2-1.72,5.11-1.88.26-.02.62-.11.77.01.68.55,1.41.43,2.19.31,1.57-.25,1.58-.23,2.99,1-1.57-.22-2.55.69-3.67,1.27-.91.47-1.79.64-2.89.51-2.08-.26-4.1.06-5.65,1.49-.34.31-.54.8-.66,1.24-.15.54-.4.79-1.04.87-.52.07-1.19.25-1.46.59-1.89,2.39-4.7,3.35-7.61,4.2-1.47.43-2.96.81-4.41,1.31-1,.34-1.92.84-2.96,1.2.31-.29.63-.57.93-.86.11-.1.22-.2.29-.32.88-1.39,1.83-2.71,3.26-3.73.68-.49.53-1.11-.26-1.51-.38-.19-.88-.29-1.32-.27-1.61.07-3.22.15-4.81.35-.6.07-1.22.37-1.72.7-1.54,1.05-1.98,1.1-3.64.22-.15-.08-.63.04-.64.12-.23,1.1-1.29,1.28-2.16,1.71-.98.49-1.86.91-2.97.17-.24-.16-1.21.12-1.38.41-.74,1.31-2.01,1.65-3.4,1.57-1.11-.07-1.54.22-1.47,1.19.01.15-.09.31-.17.56-.45-.24-.83-.44-1.21-.65-.65-.35-1.21-.23-1.38.42-.34,1.31-1.38,1.9-2.65,2.32-1.25.41-2.49.86-3.76,1.23-1.29.38-2.4.89-2.92,2.11-.06.14-.22.25-.29.33-.59-.29-1.09-.64-1.66-.77-.38-.09-.86.13-1.29.21.12.31.24.63.36.94.05.09.09.17.14.26-.27-.04-.54-.11-.8-.1-.63.03-1.3.02-1.04.93.04.15-.5.62-.77.62-1.46-.02-2.39.67-3.06,1.71-.42.64-.98.92-1.79,1.02-.71.09-1.39.37-2.09.56-.16.04-.33.04-.5.03-.24,0-.64-.12-.71-.03-.82,1.12-2.34.38-3.31,1.04-.95.65-1.89,1.34-2.8,2.03-.42.32-.79.49-1.41.39-.41-.07-1.05.14-1.34.43-.69.69-1.48,1.09-2.47,1.36-2.49.67-4.94,1.47-7.43,2.16-1.21.34-1.55,1.28-2.08,2.11-.19.31-.39.66-.7.85-.94.57-1.88,1.18-2.92,1.55-.51.19-1.28,0-1.85-.21-.69-.24-1.19-.11-1.54.38-.72,1-2.01.67-2.98,1.1-.17.08-.56-.26-.62-.29Z"/><path d="m153.43,91.39c-.09.23-.2.52-.3.8.09.08.15.15.18.14,1.38-.24,2.82-.33,4.11-.77,1.02-.35,1.83-1.18,2.79-1.71.85-.47,1.75-.92,2.69-1.21,1.64-.5,3.32-.89,4.99-1.3.53-.13,1.07-.19,1.59-.28-.89-.83-2.06-1.22-3.33-1.14-.85.05-1.8.42-2.35-.63-.08-.16-.69-.09-1.05-.15-.38-.07-.76-.16-1.14-.24,0-.09,0-.19,0-.28.37,0,.74,0,1.11.02.33.02.69.16,1,.1,4.3-.84,8.69-.68,13.03-.98,3.88-.27,7.74-.87,11.57-1.48,3.26-.52,6.49-1.2,9.7-1.92,1.21-.27,2.32-.92,3.5-1.33,3.81-1.34,7.64-2.61,11.44-3.97,2.93-1.05,5.77-2.34,8.76-3.25,2.32-.71,4.81-.99,7.22-1.47.91-.18,1.82-.37,2.71-.6,3.31-.85,6.6-1.75,9.91-2.59,2.2-.56,4.43-1.03,6.65-1.54.19-.04.39-.04.61.08-5.51,1.62-11.03,3.24-16.54,4.86-.02-.04-.04-.08-.07-.12.5-.22,1.01-.43,1.51-.65-.02-.06-.05-.11-.07-.17-1.8.57-3.63,1.08-5.41,1.72-3.94,1.42-7.78,3.06-11.78,4.32-3.17,1-5.94,2.69-9.01,3.82-.99.37-2.06.58-3.03,1-1.14.49-2.19,1.15-3.31,1.67-.99.46-2.04.8-3.04,1.24-.9.4-1.77.87-2.65,1.3-.21.11-.43.33-.63.31-1.33-.12-2.25.61-3.29,1.16-2.1,1.13-4.43,1.76-6.83,2.04-2.4.28-4.82.39-7.23.57.05.14.1.29.15.43-.3-.15-.61-.43-.91-.42-.95.02-2.05-.41-2.71.69-.09.15-.63.11-.96.1-.97-.03-1.88.04-2.71.64-.35.25-.93.35-1.4.34-1.7-.03-3.2.49-4.69,1.16-.72.32-1.57.44-2.36.64-1.33.33-2.8.14-4.03.86-.1.06-.24.1-.35.08-1.68-.29-2.62.9-3.85,1.51-.42.21-.94.25-1.4.42-.37.14-.72.33-1.06.52-.48.27-.91.65-1.42.84-1.71.65-3.45,1.24-5.18,1.85-.67.23-.9.72-.98,1.31-.1.75-.29,1.44-1.26,1.65-.11.02-.24.11-.29.2-.56.93-1.42.81-2.33.57-.52-.14-.93-.11-1.2.45-.27.56-1.98,1.02-2.65.83-.22-.06-.54-.05-.72.05-1.93,1.07-3.89,2.06-6.12,2.55-.49.11-.92.43-1.39.63-1.38.6-2.79,1.17-4.16,1.8-.87.4-1.75.8-2.51,1.34-1.47,1.05-2.95,2.03-4.88,2.24-.15.02-.35,0-.45.09-.77.66-1.73.69-2.7.92-1.09.25-1.99-.13-2.98-.11-.15,0-.3-.03-.75-.08.51.41.81.66,1.35,1.08-.99.39-1.83.73-2.68,1.04-2.26.84-4.53,1.68-6.81,2.48-.85.3-1.76.47-2.64.7-.09.02-.2.01-.27.06-1.88,1.31-4.14.57-6.18.96-.81.15-1.56.56-2.33.85-.64.24-1.27.53-1.94.73-3.08.93-6.16,1.85-9.25,2.74-1.24.36-2.52.59-3.75.95-1.18.34-2.34.73-3.48,1.17-2.59.99-5.08,2.25-7.75,2.99-4.25,1.18-7.68,3.68-11.58,5.4-4.77,2.1-9.37,4.51-14.09,6.72-1.45.68-3.06,1.08-4.53,1.74-4.51,2.03-8.98,4.1-13.46,6.19-3.16,1.47-6.2,3.17-9.46,4.42-3.06,1.16-5.87,2.72-8.87,3.95-.41.17-.75.48-1.13.71-.3.19-.61.47-.94.51-2.23.22-4.03,1.38-6.01,2.13-.3.11-.64.15-.96.22-.06-.09-.12-.18-.18-.28.66-.57,1.32-1.14,2.05-1.77-.42-.18-.77-.33-1.41-.61.61-.32,1.01-.57,1.44-.74.24-.1.55-.06.82-.12,3.31-.78,6.62-1.56,9.93-2.37.53-.13,1.02-.39,1.54-.58.85-.32,1.73-.58,2.56-.95,1.3-.57,2.56-1.23,3.86-1.8,2.37-1.04,4.52-2.35,6.64-3.76,1.5-1,3.19-2.04,4.96-2.36,1.91-.35,3.47-1.27,5.24-1.79,1.59-.47,3.07-1.31,4.52-2.09,4.11-2.2,8.22-4.41,12.26-6.71,1.9-1.08,3.65-2.37,5.47-3.57.11-.07.18-.19.45-.48-1.02.3-1.79.53-2.73.8.54-1.13,1.43-1.71,2.39-2.2,1.48-.75,3.02-1.41,4.47-2.2,1.18-.64,2.26-1.43,3.43-2.11,1.63-.95,3.22-1.98,4.96-2.74,3.39-1.48,6.84-2.83,10.3-4.17,2.05-.79,4.2-1.36,6.22-2.2,2.49-1.04,5.19-1.62,7.48-3.1.91-.59,2.04-.88,3.07-1.32,1.14-.49,2.24-1.06,3.41-1.49.6-.22,1.31-.2,1.96-.32.38-.07.77-.15,1.13-.28,1.09-.38,2.16-.79,3.24-1.19,1.12-.41,2.23-.83,3.36-1.2.63-.21,1.29-.37,1.96-.47,1.55-.25,2.86-.76,3.77-2.03.65-.91,1.49-1.69,2.88-1.74.84-.03,1.68-.2,2.48-.43.43-.12.77-.5,1.21-.81l.9.6c.13-.09.29-.14.3-.21.22-1.09,1.08-1.23,2.13-1.44.99-.19,1.93-.75,2.8-1.26,1.16-.68,2.36-.64,3.65-.48.64.08,1.32-.02,1.96-.14.85-.16,1.71-.34,2.5-.63.76-.28,1.48-.67,2.13-1.11.24-.16.46-.71.34-.89-.18-.27-.66-.45-1.04-.52-.47-.09-.97-.02-1.55-.02.59-1.26.62-1.27,1.81-.82.17.06.46.16.52.1.69-.71,1.61-.13,2.37-.37.14-.04.33-.07.45-.01.92.47,1.74.08,2.56-.22.78-.29,1.51-.72,2.37,0,.2.17,1.06-.02,1.38-.28.68-.55,1.28-.97,2.3-.74.31.07.76-.4,1.15-.6.33-.17.67-.46,1-.45.99.03,1.91-.05,2.75-.56.17-.11.4-.21.6-.2.82.06,1.63.17,2.5.26Z"/><path d="m156.21,191.83c-2.02.43-3.82.73-5.55,1.21-.59.16-.99.84-1.56,1.14-.91.48-1.86.96-2.87,1.25-1.59.46-3.22.77-4.84,1.13-.58.13-1.18.21-1.88.34,1.14.83,2.27,1.38,3.74,1.17.75-.11,1.57-.24,1.94.68.04.11.43.12.66.16.53.09,1.06.17,1.58.25,0,.09-.01.19-.02.28-.33.02-.66.04-.99.04-.65,0-1.31-.05-1.96,0-2.22.13-4.44.33-6.66.41-2.44.09-4.9-.08-7.33.12-3.36.27-6.7.72-10.04,1.21-3.27.48-6.51,1.09-9.76,1.67-.57.1-1.12.33-1.67.51-4.71,1.55-9.43,3.08-14.13,4.66-2.67.9-5.26,2.02-7.98,2.76-2.35.64-4.84.86-7.26,1.31-1.61.3-3.2.65-4.79,1.02-2.58.59-5.15,1.25-7.74,1.82-2.4.53-4.81.98-7.28,1.29,5.46-1.46,10.92-2.92,16.39-4.38l.07.14c-.49.2-.98.41-1.47.61.03.05.05.11.08.16,2.37-.7,4.76-1.34,7.1-2.12,3.46-1.15,6.82-2.54,10.33-3.54,3.24-.92,6.07-2.59,9.21-3.64.95-.32,1.97-.49,2.89-.86,1.18-.48,2.28-1.12,3.44-1.63.97-.43,2.01-.74,2.99-1.15.94-.39,1.86-.84,2.79-1.26.19-.09.39-.28.56-.26,1.36.16,2.33-.56,3.41-1.11,2.19-1.11,4.62-1.59,7.08-1.91,2.15-.28,4.3-.54,6.45-.79.2-.02.46.09.62.22.57.46,2.82.39,3.32-.09.17-.16.45-.33.68-.33,1.14-.01,2.26.01,3.26-.67.35-.24.95-.26,1.43-.25,1.57.05,2.97-.41,4.38-.96.83-.32,1.76-.43,2.64-.66,1.3-.33,2.74-.07,3.97-.76.1-.06.25-.1.36-.07,1.68.37,2.62-.87,3.88-1.42.44-.19.95-.24,1.41-.4.35-.11.69-.27,1.01-.44.54-.28,1.04-.67,1.61-.88,1.73-.61,3.5-1.12,5.21-1.76.39-.15.83-.68.85-1.05.06-1.5,1.58-1.81,2.48-2.6.25-.22,1.06.02,1.59.12.51.1.86.08,1.18-.37.53-.74,1.83-1.04,2.78-.76.17.05.43.01.58-.07,2.04-1.13,4.17-2.06,6.53-2.52.35-.07.72-.22,1-.42,1.29-.93,2.8-1.38,4.34-1.82.89-.25,1.77-.67,2.49-1.2,1.52-1.11,3.1-2.02,5.11-2.17.18-.01.42-.04.52-.15.66-.66,1.53-.58,2.38-.76,1.08-.23,1.98.1,2.96.15.21,0,.41.05.86.11-.42-.42-.7-.7-1.16-1.16.96-.34,1.82-.65,2.68-.95,2.29-.78,4.58-1.57,6.88-2.32.83-.27,1.72-.41,2.57-.62.09-.02.2-.02.27-.06,1.84-1.17,3.95-.6,5.95-.75,1.06-.08,1.96-.31,2.81-.92.47-.34,1.18-.42,1.8-.59,3.08-.84,6.16-1.67,9.24-2.5.47-.13.94-.34,1.42-.4,3.66-.4,6.86-2.11,10.36-2.94.53-.13,1-.44,1.52-.63,1.31-.48,2.66-.89,3.94-1.43,1.48-.62,2.91-1.36,4.37-2.01,3.08-1.37,6.19-2.68,9.26-4.07,3.43-1.55,6.79-3.22,10.24-4.72,1.83-.8,3.84-1.28,5.69-2.06,4.41-1.85,8.77-3.78,13.14-5.7,3.12-1.37,6.12-2.99,9.35-4.09,3-1.01,5.72-2.51,8.66-3.59.42-.15.77-.45,1.16-.67.34-.19.67-.49,1.03-.53,2.25-.21,4.13-1.3,6.16-2.03.28-.1.6-.08.9-.12.05.08.09.17.14.25-.69.55-1.38,1.09-2.16,1.71.41.19.75.35,1.31.6-.42.27-.72.51-1.07.67-.24.11-.55.07-.82.13-3.52.75-7.09,1.36-10.54,2.32-3.2.89-6.29,2.13-9.21,3.64-1.44.75-2.82,1.59-4.27,2.33-1.96,1.01-3.85,2.3-5.97,2.82-1.77.44-3.41,1.1-5.11,1.63-1.69.52-3.3,1.28-4.86,2.06-4.08,2.03-8.15,4.09-12.17,6.23-1.99,1.06-3.83,2.34-5.74,3.52-.14.09-.25.23-.3.5.76-.2,1.52-.41,2.53-.67-.72,1.09-1.58,1.69-2.56,2.15-1.54.72-3.12,1.36-4.63,2.12-1.26.64-2.42,1.42-3.65,2.11-1.12.64-2.26,1.24-3.4,1.86-.26.14-.53.29-.81.4-3.38,1.29-6.75,2.6-10.15,3.86-1.24.46-2.49.89-3.8,1.21-2.25.55-4.39,1.45-6.55,2.27-1.48.56-2.9,1.22-4.36,1.82-1.04.42-2.1.8-3.14,1.22-1.16.46-2.28,1-3.46,1.41-.58.2-1.25.17-1.88.26-.39.06-.78.12-1.14.24-1.01.33-2,.71-3.01,1.05-1.24.42-2.48.84-3.73,1.22-.55.17-1.13.3-1.71.35-1.76.16-3.22.75-4.21,2.13-.64.89-1.49,1.44-2.73,1.49-.84.04-1.7.16-2.51.37-.46.12-.84.5-1.31.81-.24-.19-.54-.41-.83-.64-.4.48-.67,1.08-1.16,1.35-.52.28-1.28.16-1.87.37-.83.29-1.64.67-2.4,1.1-1.06.6-2.16.6-3.3.35-.84-.18-1.6-.22-2.43.11-.7.28-1.54.26-2.24.53-.84.32-1.61.77-2.37,1.23-.19.11-.35.53-.26.69.14.26.47.49.78.6.26.09.61-.03.91,0,.28.03.55.14.82.22-.08.2-.11.45-.27.58-.2.17-.61.4-.74.33-.76-.42-1.37-.5-2.19.02-.38.24-1.24.11-1.75-.11-1.12-.47-2.05-.08-3.02.27-.71.26-1.33.42-2.04-.14-.23-.18-1.08.02-1.45.28-.69.48-1.28.87-2.25.62-.31-.08-.96.26-1.15.57-.29.46-.59.47-1.1.49-.9.04-1.79.27-2.68.43-.24.04-.47.18-.69.16-.8-.07-1.59-.18-2.44-.29.09-.23.21-.52.45-1.09Z"/><path d="m188.26,150.32c.72-.02,1.61-.1,2.49-.05,1.25.07,1.63.38,1.78,1.28,1.85-1.41,3.99-1.62,6.3-1.49,1.26.07,2.58,0,3.46-1.11.13-.17.54-.14.75-.29.36-.26.66-.58.98-.88.27-.26.49-.63.82-.76,1.24-.46,2.5-.62,3.75.02.21.11.49.2.71.16,1.96-.32,4.08-.08,5.79-1.29.15-.1.31-.24.47-.26,2.26-.19,3.82-1.74,5.83-2.43,1.73-.59,3.41-1.29,5.13-1.88.38-.13.86-.02,1.29-.02-.14.3-.29.61-.43.91-.03.08-.05.16-.1.32.72.15,1.43.3,2.45.51-.52.26-.79.47-1.1.54-.97.2-1.96.29-2.91.54-.81.21-1.57.59-2.36.89-.31.12-.65.33-.94.3-1.98-.21-3.79.73-5.74.65-.2,0-.45.08-.59.2-1.42,1.16-3.26,1.26-4.98,1.66-2.85.67-5.71,1.3-8.51,2.1-1.05.3-1.94,1.03-2.9,1.57-.44.24-.86.67-1.32.71-2.78.25-5.31,1.21-7.87,2.11-.49.17-1.01.31-1.52.36-1.19.11-2.34.29-3.2,1.14-.08.08-.22.11-.33.14-1.9.56-3.8,1.13-5.71,1.69-.5.15-1.03.24-1.5.45-1.54.68-3.16,1.07-4.85,1.38-2.67.49-5.29,1.21-7.94,1.8-.59.13-1.23.13-1.83.25-1.57.31-3.13.63-4.69.98-3.09.68-6.17,1.41-9.27,2.07-2.9.61-5.8,1.22-8.72,1.72-2.53.44-4.98,1.03-7.43,1.76-2.6.77-5.36,1.12-8.01,1.75-1.64.39-3.24.94-4.83,1.48-2.42.83-4.79,1.79-7.24,2.56-1.13.36-1.87,1.17-2.89,1.62-.46.2-.96.35-1.39.58-.41.22-.82.48-1.12.81-1.04,1.15-2.44,1.45-3.98,1.53-.66.03-1.37.08-1.94.33-1.66.74-3.24,1.62-4.88,2.4-.5.24-1.1.31-1.64.5-.41.14-.8.34-1.19.53-.13.06-.23.22-.36.24-1.53.29-3.07.51-4.44,1.32-.78.46-1.68.77-2.56,1.08-.61.21-1.27.31-1.92.44-.51.11-1.04.15-1.54.29-.55.15-1.01.72-1.68.21-.07-.05-.33.11-.5.16-.26.07-.56.57-.77-.05-.36.18-.83.29-1.04.57-.34.43-.73.47-1.25.51-.76.06-1.51.21-2.24.41-1.28.34-2.53.75-3.8,1.11-.29.08-.66.18-.91.08-1.04-.39-1.72.01-2.3.81-.67-.53-1.22-.16-1.86.06-.85.29-1.77.39-2.66.6-.44.1-.95.16-1.27.4-1.17.86-2.53,1.04-3.96,1.08-.25,0-.57.08-.73.22-.79.73-1.86.8-2.84,1.12-1.96.65-3.84,1.49-5.74,2.27-.2.08-.33.3-.66.6,1.81-.04,3.41-.07,5-.1.02.05.03.11.05.16-.59.17-1.19.32-1.78.51-2.71.87-5.42,1.77-8.14,2.61-.67.21-1.39.27-2.09.39-.21.04-.45,0-.64.09-1.98.89-4.42.21-6.28,1.52-.58.41-1.17.82-1.8,1.17-1.01.57-2.08,1.05-3.09,1.64-1.03.6-2,1.26-2.99,1.91-.45.29-.88.6-1.35.92-.19-.82.29-1.26.88-1.65,1.02-.67,2.05-1.33,3.06-2.02.85-.58,1.67-1.18,2.52-1.77,1.85-1.28,4.21-1.55,6.26-2.46.49-.22,1.24.05,1.87.05.75,0,1.58.11,2.23-.13,1.02-.38,1.94-.98,2.87-1.54,1.61-.97,3.21-1.96,4.78-2.99,1.47-.97,2.87-2.02,4.34-2.99.56-.37,1.21-.67,1.86-.91,2.52-.93,5.07-1.8,7.59-2.73,4.33-1.6,8.66-3.18,12.94-4.87,2.6-1.03,5.11-2.27,7.67-3.39.93-.41,1.89-.75,2.95-1.06-.23.23-.53.42-.67.69-.53,1.01-1.46,1.62-2.43,2.25-.41.27-.6.81-.89,1.22.05.1.1.2.15.3.69-.09,1.37-.21,2.06-.26.52-.04,1.2-.19,1.56.04.88.56,1.63.38,2.42-.01.75-.37,1.48-.78,2.29-1.2-.12-.15-.25-.32-.48-.61.89-.51,1.77-1.01,2.65-1.53.44-.26.91-.49,1.29-.81.4-.34.75-.57,1.37-.48.3.04.67-.3,1-.49.5-.29.95-.7,1.49-.86.81-.24,1.4-.58,1.84-1.27.26-.41.87-.67,1.35-.95,1.36-.81,2.74-1.6,4.12-2.39.95-.54,1.91-1.09,2.9-1.58.28-.14.67-.09,1.01-.13.03.07.05.14.08.2-.75.44-1.49.88-2.24,1.32.04.11.09.21.13.32.71-.16,1.46-.24,2.13-.49,2.19-.84,4.33-1.79,6.54-2.59,1.57-.57,3.21-.98,4.83-1.44.94-.27,1.9-.5,2.86-.71.37-.08.78-.06,1.17-.08.18,0,.38.04.54,0,1.89-.54,3.77-1.12,5.68-1.63.7-.19,1.45-.23,2.19-.33,1.28-.18,2.59-.23,3.82-.56,2.96-.79,5.91-1.64,8.82-2.59,3.04-.99,6.01-2.15,9.03-3.19,1.35-.46,2.76-.8,4.13-1.2.74-.22,1.47-.43,2.19-.69,2.29-.84,4.56-1.7,6.85-2.54.34-.12.72-.15,1.08-.21.24-.04.52-.02.72-.13,2.2-1.26,4.78-1.7,7.12-2.68,1.35-.57,2.94-.66,4.36-1.13,1.59-.53,3.45-.3,4.85-1.41.23-.18.65-.26.96-.22.3.03.63.23.83.44.08.09-.09.45-.24.62-.44.49-.92.95-1.25,1.29Z"/></g></g><g class="uuid-d36e812e-e5b5-4a24-8b80-02a1e6827415"><g><path d="m194.88,120.46c-2.42.86-4.59,1.72-6.83,2.38-1.29.38-2.56.7-3.77,1.32-1.21.62-2.66.86-3.98,1.34-.93.34-1.87.71-2.67,1.23-1.8,1.17-3.63,2.21-5.95,2.25-.36,0-.72.25-1.07.41-.24.11-.46.39-.68.39-1.19,0-2.4.04-3.55-.17-1.18-.21-2.29-.69-3.21-.98.33.44.84,1.12,1.49,1.99-.79.22-1.44.41-2.1.58-3.19.8-6.38,1.6-9.58,2.37-1.25.3-2.52.49-3.78.76-.44.1-.92.2-1.29.43-1.18.74-2.46.73-3.82.67-1.38-.06-2.8-.06-4.15.16-.84.14-1.6.74-2.38,1.15-.67.35-1.28.83-2,1.09-2.96,1.06-5.96,2.03-8.92,3.08-.53.19-.96.62-1.49.83-.87.34-1.76.63-2.67.88-1.18.32-2.38.57-3.56.87-1.27.32-2.54.64-3.79,1.01-.55.16-1.09.37-1.57.65-.78.45-1.54.69-2.52.59-.7-.07-1.61.08-2.15.45-1.74,1.19-3.66,2.01-5.76,2.39-2.82.52-5.27,1.77-7.7,3.02-1.44.74-2.81,1.2-4.46,1.07-1.95-.15-3.79.31-5.6.95-3.4,1.2-6.82,2.36-10.23,3.52-1.36.46-2.71.95-4.1,1.32-.56.15-1.25.16-1.81,0-.94-.26-1.69-.02-2.46.39-1.28.68-2.56,1.33-4.1,1.48-.39.04-.72.46-1.11.65-.4.2-.93.55-1.25.45-1.55-.52-2.92-.04-4.32.4-.76.24-1.52.49-2.3.67-.27.06-.59-.08-.89-.13.08-.26.09-.57.26-.77.36-.42.77-.81,1.22-1.15.68-.5.51-.88-.11-1.24-.4-.23-.85-.39-.63-.95.22-.56.67-.79,1.29-.76.96.04,1.91.16,2.86.13,1.16-.03,2.32-.28,3.48-.25,1.57.05,3.12.31,4.69.41.58.04,1.18-.16,1.78-.22.65-.06,1.33-.23,1.94-.1.88.19,1.58.12,2.36-.31.94-.51,1.99-.88,3.02-1.24.99-.35,1.81-.81,2.24-1.74.75-1.63,2.23-2.44,4.05-2.87.68-.16,1.21-.1,1.62.45.42.58.99.7,1.7.42.64-.25,1.27-.6,1.97-.01.14.12.6,0,.88-.09,1.58-.5,3.12-1.1,4.28-2.25,2.17-2.14,4.99-3,8.08-3.33.12-.01.23-.07.33-.1-.29-.42-.56-.82-.92-1.35.45-.04.68-.07.93-.09,0-.11,0-.19,0-.26-.01-.24-.14-.61-.01-.71.83-.67,1.29-1.72,2.52-2,.84-.19,1.64-.48,2.44-.9-.59.08-1.22.05-1.75.25-1.18.43-2.26-.07-3.37-.19-.62-.07-.65-.98.03-1.5.42-.33,1-.53,1.55-.68.91-.25,1.88-.36,2.78-.65.58-.19,1.08-.6,1.61-.91.44-.25.88-.5,1.34-.72.78-.37,1.62-.66,2.34-1.1.78-.47,1.5-.97,2.5-.98.26,0,.59-.09.78-.24,1.65-1.34,3.85-1.58,5.79-2.34,1.32-.52,2.6-1.14,3.9-1.69.24-.1.55-.19.79-.15.78.14,1.33-.14,1.95-.54.63-.41,1.41-.64,2.15-.89.75-.25,1.55-.39,2.29-.65,1.41-.49,2.81-1,4.19-1.56,1.4-.57,2.76-1.21,4.15-1.8.47-.2.96-.36,1.46-.5,1.85-.5,3.71-.99,5.56-1.48,1.01-.27,2.01-.56,3.03-.77.37-.08.84-.06,1.17.1.82.38,1.54.23,2.39.01,1.14-.3,2.36-.34,3.55-.48,1.49-.19,2.98-.4,4.48-.54.82-.08,1.66-.08,2.48-.01,1.98.17,3.58-.38,4.81-1.83.68-.8,1.54-1.33,2.78-1.19.5.06,1.03-.12,1.55-.2.15-.02.32-.15.44-.12,1.11.34,2,.08,2.65-.87.21.24.32.37.44.49.55.6.9.58,1.14-.14.26-.77.74-1.04,1.63-1.04.62,0,1.28-.21,1.86-.43,1.17-.45,2.28-1.02,3.44-1.47,1.28-.49,2.55-.05,3.82.14.54.08,1.14.05,1.69-.05,1.43-.26,2.88-.47,4.24-.91,1.05-.34,2-.96,2.93-1.54.22-.14.31-.69.18-.94-.13-.25-.57-.48-.91-.53-.65-.09-1.33-.04-2.03-.04.34-1.34,1.15-1.68,2.25-1.02.49.3.89.3,1.36,0,.44-.29.9-.69,1.41-.06.03.04.12.06.17.05,1.67-.35,3.48.61,5.09-.42.27-.17.64-.2.96-.32.6-.23,1.07-.24,1.54.31.19.23.79.31,1.16.24.4-.07.79-.33,1.1-.59.78-.65,1.51-1.17,2.71-.73.66.24,1.23-.22,1.42-.8.23-.71.66-.79,1.39-.68,1.03.14,2.04.04,2.87-.67.2-.17.65-.38.8-.3.91.5,1.82.27,2.82.04-.03.3-.08.48-.07.66.02.31.07.61.11.92.34-.08.68-.16,1.02-.23.43-.1.86-.24,1.3-.28,1.24-.1,2.46-.32,3.13-1.36.33-.52.39-1.22.45-1.84.11-1.03.72-1.62,1.77-1.9.81-.22,1.28-.71,1.59-1.4.14-.32.45-.57.74-.94-.75-.5-1.66-1.18-2.67-1.71-.28-.15-.91.1-1.29.3-.81.44-1.43.22-1.74-.46-.27-.59-.64-.68-1.22-.56-.06.01-.13.01-.18,0-.34-.1-.68-.2-1.01-.33-.05-.02-.02-.34.02-.35.33-.06.68-.08,1.02-.11.26-.02.63.06.76-.06,1.24-1.16,2.95-1.37,4.52-1.83,1.47-.43,3.02-.64,4.5-1.04,2.31-.62,4.62-1.27,6.9-2,3.19-1.02,6.36-2.03,9.79-2.23.81-.05,1.59-.41,2.39-.64.76-.22,1.51-.53,2.29-.64,1.96-.28,3.94-.42,5.9-.71.96-.14,1.89-.45,2.8-.76,1.29-.45,2.5-.75,3.95-.32,1.46.44,2.92.74,4.23,1.58.77.5,1.93.5,2.91.75,1.1.28,2.17.73,3.29.87,1.18.14,2.32.11,3.5.54,1.06.38,2.41.34,3.57.17.65-.1,1.31-.76,1.75-1.3.36-.44.41-1.09.56-1.66.24-.89.7-1.59,1.76-1.87.8-.22,1.63-.41,2.35-.78,1.62-.82,3.2-1.72,5.11-1.88.26-.02.62-.11.77.01.68.55,1.41.43,2.19.31,1.57-.25,1.58-.23,2.99,1-1.57-.22-2.55.69-3.67,1.27-.91.47-1.79.64-2.89.51-2.08-.26-4.1.06-5.65,1.49-.34.31-.54.8-.66,1.24-.15.54-.4.79-1.04.87-.52.07-1.19.25-1.46.59-1.89,2.39-4.7,3.35-7.61,4.2-1.47.43-2.96.81-4.41,1.31-1,.34-1.92.84-2.96,1.2.31-.29.63-.57.93-.86.11-.1.22-.2.29-.32.88-1.39,1.83-2.71,3.26-3.73.68-.49.53-1.11-.26-1.51-.38-.19-.88-.29-1.32-.27-1.61.07-3.22.15-4.81.35-.6.07-1.22.37-1.72.7-1.54,1.05-1.98,1.1-3.64.22-.15-.08-.63.04-.64.12-.23,1.1-1.29,1.28-2.16,1.71-.98.49-1.86.91-2.97.17-.24-.16-1.21.12-1.38.41-.74,1.31-2.01,1.65-3.4,1.57-1.11-.07-1.54.22-1.47,1.19.01.15-.09.31-.17.56-.45-.24-.83-.44-1.21-.65-.65-.35-1.21-.23-1.38.42-.34,1.31-1.38,1.9-2.65,2.32-1.25.41-2.49.86-3.76,1.23-1.29.38-2.4.89-2.92,2.11-.06.14-.22.25-.29.33-.59-.29-1.09-.64-1.66-.77-.38-.09-.86.13-1.29.21.12.31.24.63.36.94.05.09.09.17.14.26-.27-.04-.54-.11-.8-.1-.63.03-1.3.02-1.04.93.04.15-.5.62-.77.62-1.46-.02-2.39.67-3.06,1.71-.42.64-.98.92-1.79,1.02-.71.09-1.39.37-2.09.56-.16.04-.33.04-.5.03-.24,0-.64-.12-.71-.03-.82,1.12-2.34.38-3.31,1.04-.95.65-1.89,1.34-2.8,2.03-.42.32-.79.49-1.41.39-.41-.07-1.05.14-1.34.43-.69.69-1.48,1.09-2.47,1.36-2.49.67-4.94,1.47-7.43,2.16-1.21.34-1.55,1.28-2.08,2.11-.19.31-.39.66-.7.85-.94.57-1.88,1.18-2.92,1.55-.51.19-1.28,0-1.85-.21-.69-.24-1.19-.11-1.54.38-.72,1-2.01.67-2.98,1.1-.17.08-.56-.26-.62-.29Z"/><path d="m153.43,91.39c-.09.23-.2.52-.3.8.09.08.15.15.18.14,1.38-.24,2.82-.33,4.11-.77,1.02-.35,1.83-1.18,2.79-1.71.85-.47,1.75-.92,2.69-1.21,1.64-.5,3.32-.89,4.99-1.3.53-.13,1.07-.19,1.59-.28-.89-.83-2.06-1.22-3.33-1.14-.85.05-1.8.42-2.35-.63-.08-.16-.69-.09-1.05-.15-.38-.07-.76-.16-1.14-.24,0-.09,0-.19,0-.28.37,0,.74,0,1.11.02.33.02.69.16,1,.1,4.3-.84,8.69-.68,13.03-.98,3.88-.27,7.74-.87,11.57-1.48,3.26-.52,6.49-1.2,9.7-1.92,1.21-.27,2.32-.92,3.5-1.33,3.81-1.34,7.64-2.61,11.44-3.97,2.93-1.05,5.77-2.34,8.76-3.25,2.32-.71,4.81-.99,7.22-1.47.91-.18,1.82-.37,2.71-.6,3.31-.85,6.6-1.75,9.91-2.59,2.2-.56,4.43-1.03,6.65-1.54.19-.04.39-.04.61.08-5.51,1.62-11.03,3.24-16.54,4.86-.02-.04-.04-.08-.07-.12.5-.22,1.01-.43,1.51-.65-.02-.06-.05-.11-.07-.17-1.8.57-3.63,1.08-5.41,1.72-3.94,1.42-7.78,3.06-11.78,4.32-3.17,1-5.94,2.69-9.01,3.82-.99.37-2.06.58-3.03,1-1.14.49-2.19,1.15-3.31,1.67-.99.46-2.04.8-3.04,1.24-.9.4-1.77.87-2.65,1.3-.21.11-.43.33-.63.31-1.33-.12-2.25.61-3.29,1.16-2.1,1.13-4.43,1.76-6.83,2.04-2.4.28-4.82.39-7.23.57.05.14.1.29.15.43-.3-.15-.61-.43-.91-.42-.95.02-2.05-.41-2.71.69-.09.15-.63.11-.96.1-.97-.03-1.88.04-2.71.64-.35.25-.93.35-1.4.34-1.7-.03-3.2.49-4.69,1.16-.72.32-1.57.44-2.36.64-1.33.33-2.8.14-4.03.86-.1.06-.24.1-.35.08-1.68-.29-2.62.9-3.85,1.51-.42.21-.94.25-1.4.42-.37.14-.72.33-1.06.52-.48.27-.91.65-1.42.84-1.71.65-3.45,1.24-5.18,1.85-.67.23-.9.72-.98,1.31-.1.75-.29,1.44-1.26,1.65-.11.02-.24.11-.29.2-.56.93-1.42.81-2.33.57-.52-.14-.93-.11-1.2.45-.27.56-1.98,1.02-2.65.83-.22-.06-.54-.05-.72.05-1.93,1.07-3.89,2.06-6.12,2.55-.49.11-.92.43-1.39.63-1.38.6-2.79,1.17-4.16,1.8-.87.4-1.75.8-2.51,1.34-1.47,1.05-2.95,2.03-4.88,2.24-.15.02-.35,0-.45.09-.77.66-1.73.69-2.7.92-1.09.25-1.99-.13-2.98-.11-.15,0-.3-.03-.75-.08.51.41.81.66,1.35,1.08-.99.39-1.83.73-2.68,1.04-2.26.84-4.53,1.68-6.81,2.48-.85.3-1.76.47-2.64.7-.09.02-.2.01-.27.06-1.88,1.31-4.14.57-6.18.96-.81.15-1.56.56-2.33.85-.64.24-1.27.53-1.94.73-3.08.93-6.16,1.85-9.25,2.74-1.24.36-2.52.59-3.75.95-1.18.34-2.34.73-3.48,1.17-2.59.99-5.08,2.25-7.75,2.99-4.25,1.18-7.68,3.68-11.58,5.4-4.77,2.1-9.37,4.51-14.09,6.72-1.45.68-3.06,1.08-4.53,1.74-4.51,2.03-8.98,4.1-13.46,6.19-3.16,1.47-6.2,3.17-9.46,4.42-3.06,1.16-5.87,2.72-8.87,3.95-.41.17-.75.48-1.13.71-.3.19-.61.47-.94.51-2.23.22-4.03,1.38-6.01,2.13-.3.11-.64.15-.96.22-.06-.09-.12-.18-.18-.28.66-.57,1.32-1.14,2.05-1.77-.42-.18-.77-.33-1.41-.61.61-.32,1.01-.57,1.44-.74.24-.1.55-.06.82-.12,3.31-.78,6.62-1.56,9.93-2.37.53-.13,1.02-.39,1.54-.58.85-.32,1.73-.58,2.56-.95,1.3-.57,2.56-1.23,3.86-1.8,2.37-1.04,4.52-2.35,6.64-3.76,1.5-1,3.19-2.04,4.96-2.36,1.91-.35,3.47-1.27,5.24-1.79,1.59-.47,3.07-1.31,4.52-2.09,4.11-2.2,8.22-4.41,12.26-6.71,1.9-1.08,3.65-2.37,5.47-3.57.11-.07.18-.19.45-.48-1.02.3-1.79.53-2.73.8.54-1.13,1.43-1.71,2.39-2.2,1.48-.75,3.02-1.41,4.47-2.2,1.18-.64,2.26-1.43,3.43-2.11,1.63-.95,3.22-1.98,4.96-2.74,3.39-1.48,6.84-2.83,10.3-4.17,2.05-.79,4.2-1.36,6.22-2.2,2.49-1.04,5.19-1.62,7.48-3.1.91-.59,2.04-.88,3.07-1.32,1.14-.49,2.24-1.06,3.41-1.49.6-.22,1.31-.2,1.96-.32.38-.07.77-.15,1.13-.28,1.09-.38,2.16-.79,3.24-1.19,1.12-.41,2.23-.83,3.36-1.2.63-.21,1.29-.37,1.96-.47,1.55-.25,2.86-.76,3.77-2.03.65-.91,1.49-1.69,2.88-1.74.84-.03,1.68-.2,2.48-.43.43-.12.77-.5,1.21-.81l.9.6c.13-.09.29-.14.3-.21.22-1.09,1.08-1.23,2.13-1.44.99-.19,1.93-.75,2.8-1.26,1.16-.68,2.36-.64,3.65-.48.64.08,1.32-.02,1.96-.14.85-.16,1.71-.34,2.5-.63.76-.28,1.48-.67,2.13-1.11.24-.16.46-.71.34-.89-.18-.27-.66-.45-1.04-.52-.47-.09-.97-.02-1.55-.02.59-1.26.62-1.27,1.81-.82.17.06.46.16.52.1.69-.71,1.61-.13,2.37-.37.14-.04.33-.07.45-.01.92.47,1.74.08,2.56-.22.78-.29,1.51-.72,2.37,0,.2.17,1.06-.02,1.38-.28.68-.55,1.28-.97,2.3-.74.31.07.76-.4,1.15-.6.33-.17.67-.46,1-.45.99.03,1.91-.05,2.75-.56.17-.11.4-.21.6-.2.82.06,1.63.17,2.5.26Z"/><path d="m156.21,191.83c-2.02.43-3.82.73-5.55,1.21-.59.16-.99.84-1.56,1.14-.91.48-1.86.96-2.87,1.25-1.59.46-3.22.77-4.84,1.13-.58.13-1.18.21-1.88.34,1.14.83,2.27,1.38,3.74,1.17.75-.11,1.57-.24,1.94.68.04.11.43.12.66.16.53.09,1.06.17,1.58.25,0,.09-.01.19-.02.28-.33.02-.66.04-.99.04-.65,0-1.31-.05-1.96,0-2.22.13-4.44.33-6.66.41-2.44.09-4.9-.08-7.33.12-3.36.27-6.7.72-10.04,1.21-3.27.48-6.51,1.09-9.76,1.67-.57.1-1.12.33-1.67.51-4.71,1.55-9.43,3.08-14.13,4.66-2.67.9-5.26,2.02-7.98,2.76-2.35.64-4.84.86-7.26,1.31-1.61.3-3.2.65-4.79,1.02-2.58.59-5.15,1.25-7.74,1.82-2.4.53-4.81.98-7.28,1.29,5.46-1.46,10.92-2.92,16.39-4.38l.07.14c-.49.2-.98.41-1.47.61.03.05.05.11.08.16,2.37-.7,4.76-1.34,7.1-2.12,3.46-1.15,6.82-2.54,10.33-3.54,3.24-.92,6.07-2.59,9.21-3.64.95-.32,1.97-.49,2.89-.86,1.18-.48,2.28-1.12,3.44-1.63.97-.43,2.01-.74,2.99-1.15.94-.39,1.86-.84,2.79-1.26.19-.09.39-.28.56-.26,1.36.16,2.33-.56,3.41-1.11,2.19-1.11,4.62-1.59,7.08-1.91,2.15-.28,4.3-.54,6.45-.79.2-.02.46.09.62.22.57.46,2.82.39,3.32-.09.17-.16.45-.33.68-.33,1.14-.01,2.26.01,3.26-.67.35-.24.95-.26,1.43-.25,1.57.05,2.97-.41,4.38-.96.83-.32,1.76-.43,2.64-.66,1.3-.33,2.74-.07,3.97-.76.1-.06.25-.1.36-.07,1.68.37,2.62-.87,3.88-1.42.44-.19.95-.24,1.41-.4.35-.11.69-.27,1.01-.44.54-.28,1.04-.67,1.61-.88,1.73-.61,3.5-1.12,5.21-1.76.39-.15.83-.68.85-1.05.06-1.5,1.58-1.81,2.48-2.6.25-.22,1.06.02,1.59.12.51.1.86.08,1.18-.37.53-.74,1.83-1.04,2.78-.76.17.05.43.01.58-.07,2.04-1.13,4.17-2.06,6.53-2.52.35-.07.72-.22,1-.42,1.29-.93,2.8-1.38,4.34-1.82.89-.25,1.77-.67,2.49-1.2,1.52-1.11,3.1-2.02,5.11-2.17.18-.01.42-.04.52-.15.66-.66,1.53-.58,2.38-.76,1.08-.23,1.98.1,2.96.15.21,0,.41.05.86.11-.42-.42-.7-.7-1.16-1.16.96-.34,1.82-.65,2.68-.95,2.29-.78,4.58-1.57,6.88-2.32.83-.27,1.72-.41,2.57-.62.09-.02.2-.02.27-.06,1.84-1.17,3.95-.6,5.95-.75,1.06-.08,1.96-.31,2.81-.92.47-.34,1.18-.42,1.8-.59,3.08-.84,6.16-1.67,9.24-2.5.47-.13.94-.34,1.42-.4,3.66-.4,6.86-2.11,10.36-2.94.53-.13,1-.44,1.52-.63,1.31-.48,2.66-.89,3.94-1.43,1.48-.62,2.91-1.36,4.37-2.01,3.08-1.37,6.19-2.68,9.26-4.07,3.43-1.55,6.79-3.22,10.24-4.72,1.83-.8,3.84-1.28,5.69-2.06,4.41-1.85,8.77-3.78,13.14-5.7,3.12-1.37,6.12-2.99,9.35-4.09,3-1.01,5.72-2.51,8.66-3.59.42-.15.77-.45,1.16-.67.34-.19.67-.49,1.03-.53,2.25-.21,4.13-1.3,6.16-2.03.28-.1.6-.08.9-.12.05.08.09.17.14.25-.69.55-1.38,1.09-2.16,1.71.41.19.75.35,1.31.6-.42.27-.72.51-1.07.67-.24.11-.55.07-.82.13-3.52.75-7.09,1.36-10.54,2.32-3.2.89-6.29,2.13-9.21,3.64-1.44.75-2.82,1.59-4.27,2.33-1.96,1.01-3.85,2.3-5.97,2.82-1.77.44-3.41,1.1-5.11,1.63-1.69.52-3.3,1.28-4.86,2.06-4.08,2.03-8.15,4.09-12.17,6.23-1.99,1.06-3.83,2.34-5.74,3.52-.14.09-.25.23-.3.5.76-.2,1.52-.41,2.53-.67-.72,1.09-1.58,1.69-2.56,2.15-1.54.72-3.12,1.36-4.63,2.12-1.26.64-2.42,1.42-3.65,2.11-1.12.64-2.26,1.24-3.4,1.86-.26.14-.53.29-.81.4-3.38,1.29-6.75,2.6-10.15,3.86-1.24.46-2.49.89-3.8,1.21-2.25.55-4.39,1.45-6.55,2.27-1.48.56-2.9,1.22-4.36,1.82-1.04.42-2.1.8-3.14,1.22-1.16.46-2.28,1-3.46,1.41-.58.2-1.25.17-1.88.26-.39.06-.78.12-1.14.24-1.01.33-2,.71-3.01,1.05-1.24.42-2.48.84-3.73,1.22-.55.17-1.13.3-1.71.35-1.76.16-3.22.75-4.21,2.13-.64.89-1.49,1.44-2.73,1.49-.84.04-1.7.16-2.51.37-.46.12-.84.5-1.31.81-.24-.19-.54-.41-.83-.64-.4.48-.67,1.08-1.16,1.35-.52.28-1.28.16-1.87.37-.83.29-1.64.67-2.4,1.1-1.06.6-2.16.6-3.3.35-.84-.18-1.6-.22-2.43.11-.7.28-1.54.26-2.24.53-.84.32-1.61.77-2.37,1.23-.19.11-.35.53-.26.69.14.26.47.49.78.6.26.09.61-.03.91,0,.28.03.55.14.82.22-.08.2-.11.45-.27.58-.2.17-.61.4-.74.33-.76-.42-1.37-.5-2.19.02-.38.24-1.24.11-1.75-.11-1.12-.47-2.05-.08-3.02.27-.71.26-1.33.42-2.04-.14-.23-.18-1.08.02-1.45.28-.69.48-1.28.87-2.25.62-.31-.08-.96.26-1.15.57-.29.46-.59.47-1.1.49-.9.04-1.79.27-2.68.43-.24.04-.47.18-.69.16-.8-.07-1.59-.18-2.44-.29.09-.23.21-.52.45-1.09Z"/><path d="m188.26,150.32c.72-.02,1.61-.1,2.49-.05,1.25.07,1.63.38,1.78,1.28,1.85-1.41,3.99-1.62,6.3-1.49,1.26.07,2.58,0,3.46-1.11.13-.17.54-.14.75-.29.36-.26.66-.58.98-.88.27-.26.49-.63.82-.76,1.24-.46,2.5-.62,3.75.02.21.11.49.2.71.16,1.96-.32,4.08-.08,5.79-1.29.15-.1.31-.24.47-.26,2.26-.19,3.82-1.74,5.83-2.43,1.73-.59,3.41-1.29,5.13-1.88.38-.13.86-.02,1.29-.02-.14.3-.29.61-.43.91-.03.08-.05.16-.1.32.72.15,1.43.3,2.45.51-.52.26-.79.47-1.1.54-.97.2-1.96.29-2.91.54-.81.21-1.57.59-2.36.89-.31.12-.65.33-.94.3-1.98-.21-3.79.73-5.74.65-.2,0-.45.08-.59.2-1.42,1.16-3.26,1.26-4.98,1.66-2.85.67-5.71,1.3-8.51,2.1-1.05.3-1.94,1.03-2.9,1.57-.44.24-.86.67-1.32.71-2.78.25-5.31,1.21-7.87,2.11-.49.17-1.01.31-1.52.36-1.19.11-2.34.29-3.2,1.14-.08.08-.22.11-.33.14-1.9.56-3.8,1.13-5.71,1.69-.5.15-1.03.24-1.5.45-1.54.68-3.16,1.07-4.85,1.38-2.67.49-5.29,1.21-7.94,1.8-.59.13-1.23.13-1.83.25-1.57.31-3.13.63-4.69.98-3.09.68-6.17,1.41-9.27,2.07-2.9.61-5.8,1.22-8.72,1.72-2.53.44-4.98,1.03-7.43,1.76-2.6.77-5.36,1.12-8.01,1.75-1.64.39-3.24.94-4.83,1.48-2.42.83-4.79,1.79-7.24,2.56-1.13.36-1.87,1.17-2.89,1.62-.46.2-.96.35-1.39.58-.41.22-.82.48-1.12.81-1.04,1.15-2.44,1.45-3.98,1.53-.66.03-1.37.08-1.94.33-1.66.74-3.24,1.62-4.88,2.4-.5.24-1.1.31-1.64.5-.41.14-.8.34-1.19.53-.13.06-.23.22-.36.24-1.53.29-3.07.51-4.44,1.32-.78.46-1.68.77-2.56,1.08-.61.21-1.27.31-1.92.44-.51.11-1.04.15-1.54.29-.55.15-1.01.72-1.68.21-.07-.05-.33.11-.5.16-.26.07-.56.57-.77-.05-.36.18-.83.29-1.04.57-.34.43-.73.47-1.25.51-.76.06-1.51.21-2.24.41-1.28.34-2.53.75-3.8,1.11-.29.08-.66.18-.91.08-1.04-.39-1.72.01-2.3.81-.67-.53-1.22-.16-1.86.06-.85.29-1.77.39-2.66.6-.44.1-.95.16-1.27.4-1.17.86-2.53,1.04-3.96,1.08-.25,0-.57.08-.73.22-.79.73-1.86.8-2.84,1.12-1.96.65-3.84,1.49-5.74,2.27-.2.08-.33.3-.66.6,1.81-.04,3.41-.07,5-.1.02.05.03.11.05.16-.59.17-1.19.32-1.78.51-2.71.87-5.42,1.77-8.14,2.61-.67.21-1.39.27-2.09.39-.21.04-.45,0-.64.09-1.98.89-4.42.21-6.28,1.52-.58.41-1.17.82-1.8,1.17-1.01.57-2.08,1.05-3.09,1.64-1.03.6-2,1.26-2.99,1.91-.45.29-.88.6-1.35.92-.19-.82.29-1.26.88-1.65,1.02-.67,2.05-1.33,3.06-2.02.85-.58,1.67-1.18,2.52-1.77,1.85-1.28,4.21-1.55,6.26-2.46.49-.22,1.24.05,1.87.05.75,0,1.58.11,2.23-.13,1.02-.38,1.94-.98,2.87-1.54,1.61-.97,3.21-1.96,4.78-2.99,1.47-.97,2.87-2.02,4.34-2.99.56-.37,1.21-.67,1.86-.91,2.52-.93,5.07-1.8,7.59-2.73,4.33-1.6,8.66-3.18,12.94-4.87,2.6-1.03,5.11-2.27,7.67-3.39.93-.41,1.89-.75,2.95-1.06-.23.23-.53.42-.67.69-.53,1.01-1.46,1.62-2.43,2.25-.41.27-.6.81-.89,1.22.05.1.1.2.15.3.69-.09,1.37-.21,2.06-.26.52-.04,1.2-.19,1.56.04.88.56,1.63.38,2.42-.01.75-.37,1.48-.78,2.29-1.2-.12-.15-.25-.32-.48-.61.89-.51,1.77-1.01,2.65-1.53.44-.26.91-.49,1.29-.81.4-.34.75-.57,1.37-.48.3.04.67-.3,1-.49.5-.29.95-.7,1.49-.86.81-.24,1.4-.58,1.84-1.27.26-.41.87-.67,1.35-.95,1.36-.81,2.74-1.6,4.12-2.39.95-.54,1.91-1.09,2.9-1.58.28-.14.67-.09,1.01-.13.03.07.05.14.08.2-.75.44-1.49.88-2.24,1.32.04.11.09.21.13.32.71-.16,1.46-.24,2.13-.49,2.19-.84,4.33-1.79,6.54-2.59,1.57-.57,3.21-.98,4.83-1.44.94-.27,1.9-.5,2.86-.71.37-.08.78-.06,1.17-.08.18,0,.38.04.54,0,1.89-.54,3.77-1.12,5.68-1.63.7-.19,1.45-.23,2.19-.33,1.28-.18,2.59-.23,3.82-.56,2.96-.79,5.91-1.64,8.82-2.59,3.04-.99,6.01-2.15,9.03-3.19,1.35-.46,2.76-.8,4.13-1.2.74-.22,1.47-.43,2.19-.69,2.29-.84,4.56-1.7,6.85-2.54.34-.12.72-.15,1.08-.21.24-.04.52-.02.72-.13,2.2-1.26,4.78-1.7,7.12-2.68,1.35-.57,2.94-.66,4.36-1.13,1.59-.53,3.45-.3,4.85-1.41.23-.18.65-.26.96-.22.3.03.63.23.83.44.08.09-.09.45-.24.62-.44.49-.92.95-1.25,1.29Z"/></g></g></g></g></svg>